<?xml version="1.0" standalone="no"?>
<!DOCTYPE svg PUBLIC "-//W3C//DTD SVG 20010904//EN" "http://www.w3.org/TR/2001/REC-SVG-20010904/DTD/svg10.dtd">
<!-- Created using Krita: http://krita.org -->
<svg xmlns="http://www.w3.org/2000/svg" 
    xmlns:xlink="http://www.w3.org/1999/xlink"
    xmlns:krita="http://krita.org/namespaces/svg/krita"
    xmlns:sodipodi="http://sodipodi.sourceforge.net/DTD/sodipodi-0.dtd"
    width="648.48pt"
    height="864.48pt"
    viewBox="0 0 648.48 864.48">
<defs/>
<g id="group0" transform="matrix(0.6439767076 0 0 0.64394282336 363.83999357 216.23999024)" fill="none">
  <path id="shape0111" transform="matrix(1.1159000772 0 0 1.0746625356 85.981682698 39.410451843)" fill="none" stroke="#000000" stroke-width="6" stroke-linecap="square" stroke-linejoin="miter" stroke-miterlimit="2" d="M583.601 0L597.688 130.646C593.932 140.979 582.314 172.369 582.203 173.078C537.1 273.175 471.817 359.781 349.063 342.156C241.607 351.273 113.238 520.725 38.7131 971.468C37.4227 974.148 5.28 1135.56 0 1175.14"/>
  <path id="shape311" transform="matrix(-0.27021209156 0.035468057129 0.060161133848 0.32881448386 691.41985126 158.08974089)" fill="#000000" fill-rule="evenodd" stroke="#000000" stroke-width="2.4" stroke-linecap="square" stroke-linejoin="bevel" d="M0 16.56L18.72 0L41.4 0.72L79.2 30.24L91.8 56.88L90 73.8L64.08 86.04L41.4 65.88L25.92 79.92L3.6 72.72L20.52 63.36L25.2 48.24L14.04 32.04Z"/>
  <path id="shape021" transform="matrix(-0.27021209156 0.035468057129 0.060161133848 0.32881448386 689.31104398 133.6788751)" fill="none" stroke="#000000" stroke-width="9.6" stroke-linecap="square" stroke-linejoin="bevel" d="M0.96 160.8L34.08 153.6L54.24 154.56L72.96 159.36L98.88 146.88L110.4 128.64L106.56 107.04L95.52 88.32L92.16 64.32L85.92 56.16L92.64 45.6L91.2 27.36L85.44 10.08L78.24 0L69.6 2.4L59.04 9.12L49.44 19.68L29.28 38.88L12.96 42.24L0 42.24Z"/>
  <path id="shape24" transform="matrix(0.27021208869 -0.03546805675 0.060161134956 0.32881448997 689.06983389 133.71933764)" fill="none" stroke="#000000" stroke-width="9.6" stroke-linecap="square" stroke-linejoin="bevel" d="M0.96 160.8L34.08 153.6L54.24 154.56L72.96 159.36L98.88 146.88L110.4 128.64L106.56 107.04L95.52 88.32L92.16 64.32L85.92 56.16L92.64 45.6L91.2 27.36L85.44 10.08L78.24 0L69.6 2.4L59.04 9.12L49.44 19.68L29.28 38.88L12.96 42.24L0 42.24Z"/>
  <path id="shape25" transform="matrix(0.27021208869 -0.03546805675 0.060161134956 0.32881448997 691.69375479 147.15314573)" fill="#000000" fill-rule="evenodd" stroke="#000000" stroke-width="2.4" stroke-linecap="square" stroke-linejoin="bevel" d="M0 0L10.08 66.6C6.7942 73.0751 -4.2272 84.1917 10.2015 80.0381C14.5142 73.7304 0.0504162 86.2555 0.699411 82.3551Z"/>
  <path id="shape26" transform="matrix(0.27311387397 -0.0028312311273 0.017596940081 0.33295133039 703.9719484 135.48530399)" fill="#000000" fill-rule="evenodd" stroke="#000000" stroke-width="2.4" stroke-linecap="square" stroke-linejoin="bevel" d="M22.5133 0L31.8733 16.56L27.5533 43.56L15.6131 46.341L0 34.4016L12.4333 10.08Z"/>
  <path id="shape27" transform="matrix(0.27021208869 -0.03546805675 0.060161134956 0.32881448997 695.78305532 157.52582823)" fill="#000000" fill-rule="evenodd" stroke="#000000" stroke-width="2.4" stroke-linecap="square" stroke-linejoin="bevel" d="M0 16.56L18.72 0L41.4 0.72L79.2 30.24L91.8 56.88L90 73.8L64.08 86.04L41.4 65.88L25.92 79.92L3.6 72.72L20.52 63.36L25.2 48.24L14.04 32.04Z"/>
  <path id="shape28" transform="matrix(0.27021208869 -0.03546805675 0.060161134956 0.32881448997 696.2962663 172.85290221)" fill="#000000" fill-rule="evenodd" stroke="#000000" stroke-width="2.4" stroke-linecap="square" stroke-linejoin="bevel" d="M1.8 3.96L10.08 0C19.5303 1.18633 16.2302 7.1764 16.56 10.8C15.6594 15.4177 14.9636 20.1968 10.44 21.96C6.32204 21.9266 1.68061 20.192 0 28.08C0.6 20.04 -0.812928 12.8052 1.8 3.96Z"/>
  <path id="shape1111" transform="matrix(-0.27021209156 0.035468057129 0.060161133848 0.32881448386 691.61071031 147.15524462)" fill="#000000" fill-rule="evenodd" stroke="#000000" stroke-width="2.4" stroke-linecap="square" stroke-linejoin="bevel" d="M0 0L10.08 66.6C6.7942 73.0751 -4.2272 84.1917 10.2015 80.0381C14.5142 73.7304 0.0504162 86.2555 0.699411 82.3551Z"/>
  <path id="shape2111" transform="matrix(-0.27021209156 0.035468057129 0.060161133848 0.32881448386 676.83820104 140.62794971)" fill="#000000" fill-rule="evenodd" stroke="#000000" stroke-width="2.4" stroke-linecap="square" stroke-linejoin="bevel" d="M20.9024 0L30.2624 16.56L25.9424 43.56L7.22008 41.6825L0 26.6959L10.8224 10.08Z"/>
  <path id="shape411" transform="matrix(-0.27021209156 0.035468057129 0.060161133848 0.32881448386 696.40777444 172.8294636)" fill="#000000" fill-rule="evenodd" stroke="#000000" stroke-width="2.4" stroke-linecap="square" stroke-linejoin="bevel" d="M1.8 3.96L10.08 0C19.5303 1.18633 16.2302 7.1764 16.56 10.8C15.6594 15.4177 14.9636 20.1968 10.44 21.96C6.32204 21.9266 1.68061 20.192 0 28.08C0.6 20.04 -0.812928 12.8052 1.8 3.96Z"/>
  <path id="shape49" transform="matrix(-1.3900566071 0.2060849292 0.12590933627 1.2823810437 749.41600291 272.08469316)" fill="#000000" fill-rule="evenodd" stroke="#000000" stroke-opacity="0" stroke-width="0.816" stroke-linecap="square" stroke-linejoin="bevel" d="M31.2035 6.51639L22.32 17.6856L19.68 22.1256L15.36 22.3656L2.16 17.6856L0 10.8456L4.08 8.20562L10.08 11.0856L16.32 17.6856L18.1821 0Z"/>
  <path id="shape53" transform="matrix(1.3921691214 0.24529208548 -0.22199742696 1.2599590245 730.26802358 256.86996446)" fill="#000000" fill-rule="evenodd" stroke="#000000" stroke-width="0.816" stroke-linecap="square" stroke-linejoin="bevel" d="M0 5.60029L1.18794 10.1823L4.92146 0.848528L3.56382 0Z"/>
  <path id="shape1" transform="matrix(0.98702884118 0.16054416626 -0.16054416266 0.98702886346 662.95936776 175.07454449)" fill="none" stroke="#000000" stroke-width="3.0384" stroke-linecap="square" stroke-linejoin="bevel" d="M14.6067 12.96L5.03507 36.6074C1.85066 49.2185 -3.76422 61.168 3.70057 76.6777L9.60424 90.5498L18.2067 98.28L43.7667 104.4L66.0867 102.6L81.1156 86.2129L79.0467 74.52L72.5667 65.16L61.7667 60.48L57.8067 50.4L56.0067 37.8L58.8867 29.16L63.9267 21.24L60.3267 10.8L54.5667 5.76L52.7667 0L44.8467 0.72L37.2867 6.48L27.2067 7.2Z"/>
  <path id="shape21" transform="matrix(0.98483029062 0.17352135755 -0.17352135363 0.98483031286 727.65308652 234.19100332)" fill="none" stroke="#000000" stroke-width="3.0384" stroke-linecap="square" stroke-linejoin="bevel" d="M0 17.28L4.32 9.36L1.08 0L12.6 1.08L17.28 9.36L14.76 20.52L6.84 28.44Z"/>
  <path id="shape31" transform="matrix(0.98483029062 0.17352135755 -0.17352135363 0.98483031286 748.63337483 169.00098978)" fill="#000000" fill-rule="evenodd" stroke="#000000" stroke-opacity="0" stroke-width="3.0384" stroke-linecap="square" stroke-linejoin="bevel" d="M6.02172 13.4663L9.31321 9.10904L7.50899 10.1162L11.0092 8.46558L10.0808 6.13052L8.22789 7.3569L10.5138 4.67568L9.32473 2.81735L8.22789 4.4719L8.37645 1.34739L7.11342 0.536011L6.70054 2.77485L6.24354 0L4.63112 0.628738L4.83378 3.62338L2.68326 5.71073L2.42818 3.774L1.76005 2.427L0 3.68487L2.4579 13.8057Z"/>
  <path id="shape41" transform="matrix(0.98483029062 0.17352135755 -0.17352135363 0.98483031286 595.94585771 188.33855066)" fill="#000000" fill-rule="evenodd" stroke="#000000" stroke-width="3.0384" stroke-linecap="square" stroke-linejoin="bevel" d="M18.1456 23.5029L19.198 17.4669C21.07 11.2495 26.3403 8.25139 32.3258 5.93083L17.6155 8.48524C12.7698 8.23586 12.2986 4.22068 12.8208 2.01914L12.652 9.35979C10.5887 8.57206 7.50067 6.54475 0.767566 0C5.54098 12.9418 6.99846 12.1696 4.18469 11.0954L0 10.8579C1.22425 11.4378 4.4045 17.3282 9.53544 17.9509C12.8712 19.531 14.5699 21.4428 17.9056 23.0229Z"/>
  <path id="shape51" transform="matrix(0.98483029062 0.17352135755 -0.17352135363 0.98483031286 576.21393105 198.31111134)" fill="none" stroke="#000000" stroke-width="3.0384" stroke-linecap="square" stroke-linejoin="bevel" d="M37.2877 22.4977L36.0877 10.4977L21.4477 3.05767L21.4477 3.29767L2.76986 0L14.2477 8.57767L0 11.9418C5.53916 10.9442 16.3404 8.69352 10.6204 16.894L6.9366 15.3498L11.8477 22.7377Z"/>
  <path id="shape61" transform="matrix(0.98483029062 0.17352135755 -0.17352135363 0.98483031286 564.29190322 216.56936483)" fill="#000000" fill-rule="evenodd" stroke="#000000" stroke-width="3.0384" stroke-linecap="square" stroke-linejoin="bevel" d="M19.2621 0L3.04787 13.0921L19.4607 7.96767L2.57515 13.1754C7.42888 11.4445 8.77601 12.1764 13.3081 13.2339L0 24.8392L13.0279 21.3253L4.55616 39.633L24.2607 20.4477C29.3056 20.5759 34.3358 20.3194 39.3807 20.4477C43.7758 20.5594 48.1856 21.0559 52.5807 21.1677L45.6207 2.68767L16.6756 1.9179Z"/>
  <path id="shape71" transform="matrix(0.98483029062 0.17352135755 -0.17352135363 0.98483031286 573.97728724 239.52591127)" fill="none" stroke="#000000" stroke-width="3.0384" stroke-linecap="square" stroke-linejoin="bevel" d="M52.7388 7.68L38.5788 5.68434e-14C29.4588 3.86358e-14 20.3388 1.95399e-14 11.2188 0L4.25881 8.88C2.15344 12.0172 -0.0223573 14.9608 0.000173496 23.9491C5.83798 15.1483 11.2294 16.2419 10.4988 16.56C5.78821 23.315 0.396604 30.4413 2.38333 41.2771C5.32994 34.9618 10.8572 25.9329 15.655 22.8967L12.9988 25.8017L15.78 23.6058L10.9169 36.0093C15.1331 30.5761 19.0002 26.6474 22.7312 24.3306Z"/>
  <path id="shape81" transform="matrix(0.98483029062 0.17352135755 -0.17352135363 0.98483031286 581.99084525 248.49245752)" fill="#000000" fill-rule="evenodd" stroke="#000000" stroke-width="3.0384" stroke-linecap="square" stroke-linejoin="bevel" d="M49.0509 0.48L43.7709 0L8.33217 23.368L0 39.7016C5.10414 33.581 6.16418 30.6898 8.53818 32.8359C14.3344 33.452 12.9926 38.4073 13.5963 42.1799C15.5604 36.0438 18.5863 33.6354 23.0101 36.1347C23.7627 39.3435 27.6743 48.6276 32.1247 57.4363L39.7072 36.8482L46.4109 2.16Z"/>
  <path id="shape91" transform="matrix(0.98483029062 0.17352135755 -0.17352135363 0.98483031286 619.4636621 253.65770875)" fill="none" stroke="#000000" stroke-width="3.0384" stroke-linecap="square" stroke-linejoin="bevel" d="M11.4903 2.37544L0 45.4231L3.7649 55.7261L9.45326 47.9003L20.7108 62.0008L19.7416 46.8187L29.4583 52.1739L41.7523 37.5792C49.4033 33.6393 32.0657 8.65376 26.7314 0L10.5303 2.13544Z"/>
  <path id="shape101" transform="matrix(0.98483029062 0.17352135755 -0.17352135363 0.98483031286 647.30613663 247.73287824)" fill="#000000" fill-rule="evenodd" stroke="#000000" stroke-width="3.0384" stroke-linecap="square" stroke-linejoin="bevel" d="M6.19724 0.389428L0 10.4965C5.89885 17.0441 10.5908 36.4345 7.50526 47.9235L19.0126 63.4422L21.8545 42.2272L32.072 46.2757L32.2025 26.2696L22.8325 24.265C20.4255 25.6858 21.8507 24.9207 14.0943 16.8985L5.64123 0Z"/>
  <path id="shape111" transform="matrix(0.98483029062 0.17352135755 -0.17352135363 0.98483031286 596.68080673 205.75311909)" fill="#000000" fill-rule="evenodd" stroke="#000000" stroke-width="3.0384" stroke-linecap="square" stroke-linejoin="bevel" d="M13.0461 4.76717L8.08254 5.64171L6.34585 1.31747L2.25796 3.01252L0 0L14.0197 3.37715Z"/>
  <path id="shape121" transform="matrix(0.98483029062 0.17352135755 -0.17352135363 0.98483031286 577.50676953 232.82420964)" fill="#000000" fill-rule="evenodd" stroke="#000000" stroke-width="3.0384" stroke-linecap="square" stroke-linejoin="bevel" d="M4.29375 5.26087L0.695566 10.8921L6.45148 10.3653L11.8877 9.40747L12.1511 12.2854L17.5308 6.1094L19.4647 9.53463L24.874 5.65719L28.1403 8.98084L32.0481 4.88056L32.1255 0L37.7258 8.48528L37.0386 6.92561L8.18576 5.29248L0 12.4768Z"/>
  <path id="shape131" transform="matrix(0.98483029062 0.17352135755 -0.17352135363 0.98483031286 618.96456533 256.65249463)" fill="#000000" fill-rule="evenodd" stroke="#000000" stroke-width="3.0384" stroke-linecap="square" stroke-linejoin="bevel" d="M9.56228 0L8.54479 6.80697L8.46266 4.82399L11.2222 10.1395L7.01744 13.5952L7.18715 13.2558L8.45933 17.2531L7.01744 18.347C4.91173 23.0567 6.33115 25.6236 6.82962 28.7503L2.24199 27.6091L2.96236 37.23L0 41.1637L6.67803 1.03698Z"/>
  <path id="shape141" transform="matrix(0.98483029062 0.17352135755 -0.17352135363 0.98483031286 582.45559398 219.83021872)" fill="#000000" fill-rule="evenodd" stroke="#000000" stroke-width="3.0384" stroke-linecap="square" stroke-linejoin="bevel" d="M0.65281 8.74085L0 6.4189L4.22032 6.52796L4.39003 5.00061L2.85093 3.23592L8.29326 2.11561L15.6841 0L11.8571 2.79444L10.3593 0.207115L19.4512 2.01692L19.1544 2.79444L22.4541 2.46262L25.6799 1.40687L29.0867 7.42807L3.22685 1.22011Z"/>
  <path id="shape151" transform="matrix(0.98483029062 0.17352135755 -0.17352135363 0.98483031286 589.15714241 248.39148439)" fill="#000000" fill-rule="evenodd" stroke="#000000" stroke-width="3.0384" stroke-linecap="square" stroke-linejoin="bevel" d="M6.58031 20.971L9.97442 19.6134L0 21.5268L2.64271 17.162L10.3728 16.7748L10.6519 12.8265L17.4365 12.6059L18.3538 13.6627L21.9285 7.67159L28.1571 7.06153L32.2742 0L29.4222 7.32603L36.6233 9.46899L33.8509 2.06295L8.78648 19.6134Z"/>
  <path id="shape161" transform="matrix(0.98483029062 0.17352135755 -0.17352135363 0.98483031286 642.95190955 258.38408947)" fill="#000000" fill-rule="evenodd" stroke="#000000" stroke-width="3.0384" stroke-linecap="square" stroke-linejoin="bevel" d="M3.9144 0L0 2.36352L5.66437 6.03955L4.47398 12.5416L7.36142 16.3916L8.37966 13.3369L4.12509 17.477L4.83305 21.4951L8.90521 26.6263L7.70879 29.5178L10.0994 32.021Z"/>
  <path id="shape17" transform="matrix(0.98483029062 0.17352135755 -0.17352135363 0.98483031286 699.51966632 218.50722038)" fill="#000000" fill-rule="evenodd" stroke="#000000" stroke-width="3.0384" stroke-linecap="square" stroke-linejoin="bevel" d="M5.33689 5.60167L6.13254 0.929715L15.0098 0L20.2762 10.5259L32.9833 10.7239L33.4115 21.5357L30.7819 28.658L20.3145 23.1913L11.792 23.2308L6.13294 25.69L2.41986 29.5123L0 32.3757L2.69622 28.8523L3.6691 25.4379L2.69622 21.0479L3.11317 17.6335L4.22503 14.7068L6.17079 10.9672Z"/>
  <path id="shape18" transform="matrix(0.98483029062 0.17352135755 -0.17352135363 0.98483031286 691.29269795 172.46202949)" fill="#000000" fill-rule="evenodd" stroke="#000000" stroke-width="3.0384" stroke-linecap="square" stroke-linejoin="bevel" d="M15.5297 47.6873L18.9238 39.7111L42.9201 40.0832L57.6801 19.2032L60.8411 0L59.4801 0.123238L58.4001 14.1632L45.0801 30.7232L25.2029 22.7406L7.73096 19.3144L0 34.1175Z"/>
  <path id="shape20" transform="matrix(1.0000001808 0 0 1.0000002032 720.66180268 195.07174117)" fill="#000000" fill-rule="evenodd" stroke="#000000" stroke-width="2.4864" stroke-linecap="square" stroke-linejoin="bevel" d="M0 0C2.61034 2.01478 2.42966 1.94522 5.04 3.96C7.46862 7.23089 2.66108 0.536465 9.72 9.84L9.72 11.28L1.56 6L0.48 1.44Z"/>
  <path id="shape211" transform="matrix(1.0000001808 0 0 1.0000002032 732.30180479 213.35932029)" fill="#000000" fill-rule="evenodd" stroke="#000000" stroke-width="2.4864" stroke-linecap="square" stroke-linejoin="bevel" d="M7.93206 1.75389L17.8921 6.67389L17.0498 7.97616L0 5.23242L5.34012 0Z"/>
  <g id="group01" transform="matrix(1.0000001356 0 0 1.000000158 399.42174423 396.69007044)" fill="none">
   <path id="shape231" transform="matrix(1.0000000452 0 0 1.0000000452 3.8400001768 92.475023118)" fill="none" stroke="#000000" stroke-width="2.4864" stroke-linecap="square" stroke-linejoin="bevel" d="M48.48 9.1467C44.404 7.02504 33.7577 1.36274 30.0829 0.0434235C22.8981 -0.284533 22.1036 1.3118 20.9188 2.58901L14.64 5.0667L16.08 11.3067L0.24 13.2267L10.56 18.2667L0 30.7467L9.6 29.3067C13.9138 27.5072 17.4671 24.1587 24.6524 24.8204C34.665 25.3517 38.4653 28.1654 41.52 28.2267L48.24 11.3067Z"/>
   <path id="shape241" transform="matrix(1.0000000452 0 0 1.0000000452 -1.1368683772e-13 117.63488059)" fill="#000000" fill-rule="evenodd" stroke="#000000" stroke-width="2.4864" stroke-linecap="square" stroke-linejoin="bevel" d="M45.24 19.0268L45.84 1.86684L27.6438 0L11.52 6.30684L0 17.8268L7.44 16.3868L3.84 25.0268L8.88 25.0268L0.48 35.8268L10.08 37.2668L3.6 56.4668L15.2553 42.9355C10.6724 38.7372 10.0715 33.8761 12.54 31.3955C13.9221 24.0149 33.8594 17.0609 45.36 19.2668Z"/>
   <path id="shape29" transform="matrix(1.0000000452 0 0 1.0000000452 9.824744552 130.53250886)" fill="#000000" fill-rule="evenodd" stroke="#000000" stroke-width="2.2392" stroke-linecap="square" stroke-linejoin="bevel" d="M33.6017 9.84293L28.1711 9.67322L24.4376 8.31558L21.892 10.6915L18.3282 10.8612L14.9341 7.97616L11.54 13.237L9.33381 12.0491L7.63675 15.4432L3.22441 16.6312L4.07294 21.2132L0 21.3829L2.03647 10.8612L17.8191 0L35.4685 3.73352L35.4685 3.73352Z"/>
   <g id="group1" transform="translate(11.473729367, -1.1368683772e-13)" fill="none">
    <path id="shape02" transform="matrix(0.74056353382 0 0 0.68730781523 72.364447037 162.56204445)" fill="#000000" fill-rule="evenodd" stroke="#000000" stroke-width="2.0064" stroke-linecap="square" stroke-linejoin="bevel" d="M34.2 31.44L28.3034 46.7109L18.0828 47.16L9.43448 30.5417L0 13.4743L3.14483 2.24571L9.43448 0L18.4759 0L23.5862 4.94057L24.7655 14.3726L25.9448 28.296Z"/>
    <path id="shape11" transform="matrix(0.74056353382 0 0 0.68730781523 154.2115288 159.84030551)" fill="#000000" fill-rule="evenodd" stroke="#000000" stroke-width="2.0064" stroke-linecap="square" stroke-linejoin="bevel" d="M0 36L7.01443 46.08L19.0948 46.08L28.0577 37.44L36.6309 20.88L37.8 2.16L23.7711 0L17.1464 13.32L13.6392 33.12Z"/>
    <path id="shape21111" transform="matrix(0.74056353382 0 0 0.68730781523 143.28081103 -1.1368683772e-13)" fill="#000000" fill-rule="evenodd" stroke="#000000" stroke-width="2.0064" stroke-linecap="square" stroke-linejoin="bevel" d="M0 119.16L33.84 79.92L29.16 38.16L23.4 31.68L17.64 20.88L5.4 16.56L5.4 12.96L16.56 17.28L9.72 4.68L12.24 2.16L17.64 14.4L16.92 0L19.08 0.36L19.8 14.04L22.68 3.6L27 2.88L22.32 14.4L28.8 7.56L31.32 7.2L24.48 19.08L48.24 89.28L25.56 140.76L12.96 139.68Z"/>
    <path id="shape3111" transform="matrix(0.47139576673 0 0 0.5451302109 125.98451932 27.217389465)" fill="#000000" fill-rule="evenodd" stroke="#000000" stroke-width="2.0064" stroke-linecap="square" stroke-linejoin="bevel" d="M0 1.44L6.72 0L11.04 2.88L11.04 6.24L10.56 8.64L0.96 8.64Z"/>
    <path id="shape4" transform="matrix(0.47139576673 0 0 0.5451302109 126.21078927 31.665651985)" fill="none" stroke="#000000" stroke-width="4.56" stroke-linecap="square" stroke-linejoin="bevel" d="M10.56 0L14.4 1.92L15.84 9.12L20.16 18.72L28.8 22.56L45.12 26.4L51.84 39.36L58.08 58.08L51.84 76.32L36 82.08L19.68 84L0 84.48L0 0.48Z"/>
    <path id="shape5" transform="matrix(0.47139576673 0 0 0.5451302109 137.75055763 38.992202041)" fill="none" stroke="#000000" stroke-width="2.88" stroke-linecap="square" stroke-linejoin="bevel" d="M0 6.24L18.24 3.84L29.28 0L31.2 7.68L31.2 14.88L25.44 19.2L20.16 12.48Z"/>
    <path id="shape6" transform="matrix(0.47139576673 0 0 0.5451302109 135.48785796 41.60882705)" fill="#000000" fill-rule="evenodd" stroke="#000000" stroke-width="2.0064" stroke-linecap="square" stroke-linejoin="bevel" d="M0 0L6.24 13.92L24 22.08L31.2 20.16L24.48 6.72Z"/>
    <path id="shape7" transform="matrix(0.47139576673 0 0 0.5451302109 126.21078927 35.328927028)" fill="#000000" fill-rule="evenodd" stroke="#000000" stroke-width="2.0064" stroke-linecap="square" stroke-linejoin="bevel" d="M0.48 0L7.2 0L18.24 20.16L10.56 15.36L3.36 12.48L0 13.44Z"/>
    <path id="shape8" transform="matrix(0.47139576673 0 0 0.5451302109 125.98451932 55.476939603)" fill="#000000" fill-rule="evenodd" stroke="#000000" stroke-width="2.0064" stroke-linecap="square" stroke-linejoin="bevel" d="M17.76 0L44.64 9.6L49.44 19.68L39.36 36.96L18.72 39.84L0 39.84L0.96 10.08L11.52 9.12Z"/>
    <path id="shape9" transform="matrix(0.47139576673 0 0 0.5451302109 151.32675573 46.842077088)" fill="none" stroke="#000000" stroke-width="2.0064" stroke-linecap="square" stroke-linejoin="miter" stroke-miterlimit="2" d="M2.4 0L0 13.92"/>
    <path id="shape10" transform="matrix(0.47139576673 0 0 0.5451302109 149.25252027 48.040376935)" fill="#000000" fill-rule="evenodd" stroke="#000000" stroke-width="2.0064" stroke-linecap="square" stroke-linejoin="bevel" d="M5.43058 0L4.24264 9.50352L0 3.39411Z"/>
    <path id="shape11111" transform="matrix(0.47139576673 0 0 0.5451302109 144.37261089 42.212142074)" fill="#000000" fill-rule="evenodd" stroke="#000000" stroke-width="2.0064" stroke-linecap="square" stroke-linejoin="bevel" d="M0 3.0547L5.60029 1.86676L11.3703 0L13.237 6.61852L10.1823 10.0126Z"/>
    <path id="shape03" transform="matrix(-0.4713957813 0 0 0.54513018444 126.45193595 27.313156687)" fill="#000000" fill-rule="evenodd" stroke="#000000" stroke-width="2.0064" stroke-linecap="square" stroke-linejoin="bevel" d="M0 1.44L6.72 0L11.04 2.88L11.04 6.24L10.56 8.64L0.96 8.64Z"/>
    <path id="shape12" transform="matrix(-0.4713957813 0 0 0.54513018444 126.22566595 31.761418988)" fill="none" stroke="#000000" stroke-width="4.8" stroke-linecap="square" stroke-linejoin="bevel" d="M10.56 0L14.4 1.92L15.84 9.12L20.16 18.72L28.8 22.56L45.12 26.4L51.84 39.36L58.08 58.08L51.84 76.32L36 82.08L19.68 84L0 84.48L0 0.48Z"/>
    <path id="shape22" transform="matrix(-0.4713957813 0 0 0.54513018444 114.68589723 39.087968643)" fill="none" stroke="#000000" stroke-width="2.88" stroke-linecap="square" stroke-linejoin="bevel" d="M0 6.24L18.24 3.84L29.28 0L31.2 7.68L31.2 14.88L25.44 19.2L20.16 12.48Z"/>
    <path id="shape32" transform="matrix(-0.4713957813 0 0 0.54513018444 116.94859698 41.704593532)" fill="#000000" fill-rule="evenodd" stroke="#000000" stroke-width="2.0064" stroke-linecap="square" stroke-linejoin="bevel" d="M0 0L6.24 13.92L24 22.08L31.2 20.16L24.48 6.72Z"/>
    <path id="shape4111" transform="matrix(-0.4713957813 0 0 0.54513018444 126.22566595 35.42469381)" fill="#000000" fill-rule="evenodd" stroke="#000000" stroke-width="2.0064" stroke-linecap="square" stroke-linejoin="bevel" d="M0.48 0L7.2 0L18.24 20.16L10.56 15.36L3.36 12.48L0 13.44Z"/>
    <path id="shape511" transform="matrix(-0.4713957813 0 0 0.54513018444 126.45193595 55.572705406)" fill="#000000" fill-rule="evenodd" stroke="#000000" stroke-width="2.0064" stroke-linecap="square" stroke-linejoin="bevel" d="M17.76 0L44.64 9.6L49.44 19.68L39.36 36.96L18.72 39.84L0 39.84L0.96 10.08L11.52 9.12Z"/>
    <path id="shape611" transform="matrix(-0.4713957813 0 0 0.54513018444 101.10969876 46.93784331)" fill="none" stroke="#000000" stroke-width="2.0064" stroke-linecap="square" stroke-linejoin="miter" stroke-miterlimit="2" d="M2.4 0L0 13.92"/>
    <path id="shape711" transform="matrix(-0.4713957813 0 0 0.54513018444 103.18393424 48.136143138)" fill="#000000" fill-rule="evenodd" stroke="#000000" stroke-width="2.0064" stroke-linecap="square" stroke-linejoin="bevel" d="M5.43058 0L4.24264 9.50352L0 3.39411Z"/>
    <path id="shape811" transform="matrix(-0.4713957813 0 0 0.54513018444 108.06384376 42.307908526)" fill="#000000" fill-rule="evenodd" stroke="#000000" stroke-width="2.0064" stroke-linecap="square" stroke-linejoin="bevel" d="M0 3.0547L5.60029 1.86676L11.3703 0L13.237 6.61852L10.1823 10.0126Z"/>
    <path id="shape1211" transform="matrix(0.74056353382 0 0 0.68730781523 77.518769204 73.404474678)" fill="none" stroke="#000000" stroke-width="4.8" stroke-linecap="square" stroke-linejoin="bevel" d="M32.4 0L22.56 10.32L18.6986 33.5472L24.532 56.7682L13.68 93.36L5.41143 102.337L0 115.2L2.4 138.48L11.52 153.36L14.16 160.56L26.88 162L30.24 156L65.76 157.68L65.76 6.48L53.04 6.24L42.24 4.8Z"/>
    <path id="shape012" transform="matrix(-0.74056355243 0 0 0.68730780752 175.02118268 73.352063567)" fill="none" stroke="#000000" stroke-width="4.8" stroke-linecap="square" stroke-linejoin="bevel" d="M32.4 0L22.56 10.32L17.6824 31.0045L23.1917 49.3369L13.68 93.36L5.52 101.28L0 115.2L2.4 138.48L11.52 153.36L14.16 160.56L26.88 162L30.24 156L65.76 157.68L65.76 6.48L53.04 6.24L42.24 4.8Z"/>
    <path id="shape13" transform="matrix(0.74056353382 0 0 0.68730781523 126.39596246 80.196459852)" fill="#000000" fill-rule="evenodd" stroke="#000000" stroke-width="2.0064" stroke-linecap="square" stroke-linejoin="bevel" d="M2.17423 3.36C6.45629 15.1793 38.2291 0.891147 32.8942 0L34.56 23.238L32.16 45.798L37.92 85.638L45.6 99.078L23.04 127.878L0 134.598Z"/>
    <path id="shape14" transform="matrix(0.74056353382 0 0 0.68730781523 126.96806193 78.813675014)" fill="#000000" fill-rule="evenodd" stroke="#000000" stroke-width="2.0064" stroke-linecap="square" stroke-linejoin="bevel" d="M31.6505 7.841C21.2349 10.0738 11.1532 21.0479 0 9.58086L0.378679 4.10748C8.91252 22.5072 43.3095 -15.4955 31.6505 7.841Z"/>
    <path id="shape15" transform="matrix(0.74056353382 0 0 0.68730781523 98.758131354 79.781719533)" fill="#000000" fill-rule="evenodd" stroke="#000000" stroke-width="2.0064" stroke-linecap="square" stroke-linejoin="bevel" d="M37.1719 0C30.1513 14.8606 22.4906 11.699 13.1902 8.03134L8.28 38.0014L11.16 57.8014L5.76 86.2414L0 98.1214L8.64 128.721L36 135.561Z"/>
    <path id="shape16" transform="matrix(0.74056353382 0 0 0.68730781523 71.564638409 4.9486162718)" fill="#000000" fill-rule="evenodd" stroke="#000000" stroke-width="2.0064" stroke-linecap="square" stroke-linejoin="bevel" d="M49.32 115.92L33.12 92.88L11.88 45.72L13.68 27L21.6 10.44L20.16 7.56L15.12 19.8L12.96 17.28L15.48 1.8L12.24 0L10.8 15.48L7.92 2.88L5.4 5.04L8.64 15.48L5.4 8.64L1.44 8.28L5.4 17.64L0 14.4L0.72 18.72L8.28 24.84L10.8 85.68L25.56 133.92L47.52 131.04Z"/>
    <path id="shape211111" transform="matrix(0.74046244308 -0.011073921511 0.012547626139 0.68721399418 88.075298252 89.503571882)" fill="#000000" fill-rule="evenodd" stroke="#000000" stroke-width="2.0064" stroke-linecap="square" stroke-linejoin="bevel" d="M11.5548 0L7.22175 29.5382L0 1.05494Z"/>
    <path id="shape221" transform="matrix(0.74056353382 0 0 0.68730781523 150.1643769 95.853606146)" fill="#000000" fill-rule="evenodd" stroke="#000000" stroke-width="2.0064" stroke-linecap="square" stroke-linejoin="bevel" d="M0 0L9.1265 16.885L15.2108 1.02333Z"/>
    <path id="shape23" transform="matrix(1.4136132866 0 0 1.2793666734 94.504262058 94.877832484)" fill="#000000" fill-rule="evenodd" stroke="#000000" stroke-width="0.816" stroke-linecap="square" stroke-linejoin="bevel" d="M8.28 0.84L1.51528 14.0881L0 6.96L0.24 0Z"/>
    <path id="shape19" transform="matrix(1.0000000452 0 0 1.0000000452 46.038298673 143.74172243)" fill="none" stroke="#000000" stroke-width="2.4864" stroke-linecap="square" stroke-linejoin="bevel" d="M13.768 6.12L34.648 0C25.5779 9.33902 34.836 26.3148 35.9776 39.9086L12.0491 40.2481C6.49464 38.3197 2.85004 32.2534 0 24.4654C8.54762 12.1282 9.68429 10.2998 14.128 5.76Z"/>
    <path id="shape2211" transform="matrix(1.0000000452 0 0 1.0000000452 0.69597681811 72.341719194)" fill="#000000" fill-rule="evenodd" stroke="#000000" stroke-width="2.4864" stroke-linecap="square" stroke-linejoin="bevel" d="M39.6703 31.44L63.6703 16.32L49.2 13.68L47.04 8.16L44.88 12.48L34.56 0L34.56 10.8L30 7.2L26.4 12.96L11.28 5.76L14.16 18.72L0 17.04L12.08 23.2314C14.5698 20.6873 17.9623 19.7228 22.2624 20.3464C26.8911 20.3757 30.2786 24.1286 34.08 26.64Z"/>
    <path id="shape251" transform="matrix(1.0000000452 0 0 1.0000000452 -4.4267230237e-06 137.35915077)" fill="none" stroke="#000000" stroke-width="2.4864" stroke-linecap="square" stroke-linejoin="bevel" d="M45.5292 8.61657L34.2463 0.262573C27.413 0.123532 12.8376 -2.1152 2.93307 9.4651L2.59365 9.6348C2.18984 11.2854 -3.63121 21.3833 3.61189 22.7021L2.92627 30.5026L9.64627 30.9826L1.00627 47.7826L12.7663 40.5826L13.4863 46.8226L19.2463 39.3826L15.6463 55.9426L24.9069 41.9111C24.5768 38.7705 24.2993 35.6193 26.1827 32.0359C26.4627 30.3255 29.1893 26.1366 32.1224 23.2113L45.7663 8.54257Z"/>
    <path id="shape261" transform="matrix(1.0000000452 0 0 1.0000000452 24.766272272 145.90172253)" fill="#000000" fill-rule="evenodd" stroke="#000000" stroke-width="2.4864" stroke-linecap="square" stroke-linejoin="bevel" d="M35.76 3.96L20.88 0L6.96 15.24L1.41647 23.4934L0.24 30.84L0 40.44L4.8 36.84L3.36 49.32L14.4 39.96L18.96 50.04L23.76 39.96L26.4 45.48L33.6 38.28C29.3399 36.1849 22.4249 28.2642 23.4782 26.2087C22.8531 24.1762 22.9869 29.2355 23.6479 22.8146C26.2301 16.0525 29.4679 9.59665 35.76 3.96Z"/>
    <path id="shape271" transform="matrix(1.0000000452 0 0 1.0000000452 43.662419779 149.02172267)" fill="#000000" fill-rule="evenodd" stroke="#000000" stroke-width="2.2392" stroke-linecap="square" stroke-linejoin="bevel" d="M17.6494 3.23311L13.4067 3.74222L12.7279 5.60899L12.3885 10.191L9.50352 10.8699L9.84293 14.0943L6.44881 17.6581L9.1641 21.5613L5.76999 25.2948L6.78823 28.689L11.0309 29.5375L14.2553 35.9863L0 29.8769L1.69706 7.98486L10.8639 0L17.3439 0.48Z"/>
    <path id="shape281" transform="matrix(1.0000000452 0 0 1.0000000452 23.297743559 145.30172249)" fill="#000000" fill-rule="evenodd" stroke="#000000" stroke-width="2.2392" stroke-linecap="square" stroke-linejoin="bevel" d="M22.4685 0L18.3282 2.54076L17.6494 6.27428L13.4067 7.12281L12.3885 11.5352L12.2188 11.7049L4.92146 16.2869L3.39411 23.2448L0.678823 23.0751L1.69706 27.4875L0 31.3907L1.69706 35.8031L9.84293 28.1663L15.2735 15.4384L26.9085 2.04L18.3282 5.25605Z"/>
    <path id="shape30" transform="matrix(1.0000000452 0 0 1.0000000452 1.7451278918 114.91959043)" fill="#000000" fill-rule="evenodd" stroke="#000000" stroke-width="2.2392" stroke-linecap="square" stroke-linejoin="bevel" d="M2.37588 6.95793L0 6.78823L1.69706 4.24264L5.43058 4.58205L7.63675 1.86676L9.67322 4.58205L10.6915 0L17.6494 2.885L21.2132 1.35765L25.7953 3.90323L29.5288 1.69706L32.0744 6.1094L15.7826 7.97616L1.69706 7.80646L1.52735 7.12764Z"/>
    <path id="shape31111" transform="matrix(1.0000000452 0 0 1.0000000452 10.230409654 87.427277525)" fill="#000000" fill-rule="evenodd" stroke="#000000" stroke-width="2.2392" stroke-linecap="square" stroke-linejoin="bevel" d="M30.0379 15.7826L25.1164 15.9523L24.4376 12.5582L19.8556 12.2188L18.1585 8.14587L13.237 8.31558L11.8794 5.26087L7.46705 7.97616L3.73352 6.95793L3.90323 10.1823L0 8.82469L5.43058 0L34.7897 12.7279L28.1711 6.1094Z"/>
   </g>
  </g>
  <path id="shape34" transform="matrix(5.4087623246 1.9342218429 -1.8496124631 5.0333474444 714.18968741 12.701397789)" fill="none" stroke="#000000" stroke-width="0.96" stroke-linecap="square" stroke-linejoin="miter" stroke-miterlimit="2" d="M0 6.18225L10.8332 0"/>
  <path id="shape35" transform="matrix(1.3165166196 0.50147879053 -0.48565141046 1.2418091153 731.86709447 53.648669795)" fill="none" stroke="#000000" stroke-width="3.6" stroke-linecap="square" stroke-linejoin="miter" stroke-miterlimit="2" d="M0 8.24747L14.0593 0"/>
  <path id="shape341" transform="matrix(5.4087624379 1.934221738 -1.8496125019 5.0333471715 718.70805576 55.388641314)" fill="none" stroke="#000000" stroke-width="0.96" stroke-linecap="square" stroke-linejoin="miter" stroke-miterlimit="2" d="M0 6.18225L10.8332 0"/>
  <path id="shape342" transform="matrix(5.4087623143 1.9342217458 -1.8496124596 5.0333471919 722.14638393 90.155897126)" fill="none" stroke="#000000" stroke-width="0.96" stroke-linecap="square" stroke-linejoin="miter" stroke-miterlimit="2" d="M0 6.18225L10.8332 0"/>
  <path id="shape351" transform="matrix(1.3165166364 0.501478779 -0.48565141667 1.2418090867 740.81958116 128.61656889)" fill="none" stroke="#000000" stroke-width="3.6" stroke-linecap="square" stroke-linejoin="miter" stroke-miterlimit="2" d="M0 8.24747L14.0593 0"/>
  <path id="shape352" transform="matrix(1.3165166364 0.501478779 -0.48565141667 1.2418090867 737.53205546 91.624467557)" fill="none" stroke="#000000" stroke-width="3.6" stroke-linecap="square" stroke-linejoin="miter" stroke-miterlimit="2" d="M0 8.24747L14.0593 0"/>
  <path id="shape521" transform="matrix(0.52677471894 0.032953352127 -0.051385459466 0.67287252626 497.19729991 1009.4873139)" fill="#000000" fill-rule="evenodd" stroke="#000000" stroke-width="9.6" stroke-linecap="square" stroke-linejoin="bevel" d="M62.1584 0L0 436.224L198.853 432.822L185.228 38.1648Z"/>
  <path id="shape421" transform="matrix(0.52098878332 0.077769600928 -0.12134721591 0.66548157199 294.58968068 991.77857601)" fill="#000000" fill-rule="evenodd" stroke="#000000" stroke-width="9.6" stroke-linecap="square" stroke-linejoin="bevel" d="M203.06 0L0 473.089L348.002 432.421L451.635 33.5032Z"/>
  <path id="shape3" transform="matrix(0.9549333396 0.29682106238 -0.2968210595 0.95493334894 366.16480329 896.89437693)" fill="#000000" fill-rule="evenodd" stroke="#000000" stroke-opacity="0" stroke-width="6" stroke-linecap="square" stroke-linejoin="bevel" d="M338.164 55.68C338.164 24.9288 262.464 1.88297e-15 169.082 0C75.7006 -1.88297e-15 1.14359e-14 24.9288 0 55.68C-1.14359e-14 86.4312 75.7006 111.36 169.082 111.36C262.464 111.36 338.164 86.4312 338.164 55.68Z"/>
  <path id="shape01" transform="matrix(0.47930014413 0.24703119509 -0.22718264531 0.62596342266 828.17607705 -3.3750779949e-14)" fill="#000000" fill-rule="evenodd" stroke="#000000" stroke-width="9.6" stroke-linecap="square" stroke-linejoin="bevel" d="M61.2418 5.05114C60.6078 5.02394 63.4975 0.0807836 63.3542 0L61.6326 1012.53C61.6326 1025.43 51.1762 1035.88 38.2777 1035.88L23.3549 1035.88C10.4564 1035.88 -1.77636e-15 1025.43 0 1012.53L1.95824 25.763C23.3741 18.681 43.1353 11.777 61.2418 5.05114Z"/>
  <path id="shape011" transform="matrix(0.48810372751 0.2218480364 -0.20744665546 0.63536479787 859.16488555 11.941304087)" fill="#000000" fill-rule="evenodd" stroke="#000000" stroke-width="9.6" stroke-linecap="square" stroke-linejoin="bevel" d="M18.883 0L19.715 1023.1C19.715 1024.55 18.5412 1025.72 17.0933 1025.72L2.6217 1025.72C1.17377 1025.72 -4.44089e-16 1024.55 1.22208e-31 1023.1L2.04495 5.50155C1.45944 6.14675 18.7257 0.495697 18.883 0Z"/>
  <path id="shape01111" transform="matrix(0.96138064694 0.27522295996 -0.27522295729 0.96138065634 462.6579335 545.63878925)" fill="#000000" fill-rule="evenodd" stroke="#000000" stroke-opacity="0" stroke-width="6" stroke-linecap="square" stroke-linejoin="bevel" d="M358.539 113.975C415.095 17.2397 270.579 3.55271e-15 183.959 1.04937e-30C97.3388 -3.55271e-15 -38.3476 9.01773 10.2143 112.838C22.3242 107.641 120.616 77.2914 192.108 83.7329C273.581 86.6797 338.788 110.803 358.539 113.975Z"/>
  <path id="shape2" transform="matrix(0.95101261907 0.30915275316 -0.30915275013 0.95101262834 319.62714445 770.97388784)" fill="#000000" fill-rule="evenodd" stroke="#000000" stroke-opacity="0" stroke-width="6" stroke-linecap="square" stroke-linejoin="bevel" d="M517.51 67.6826C504.143 48.4711 400.785 -3.1978 267.824 0.155878C142.27 -3.04729 21.853 46.4029 3.01115 77.208C-9.36033 127.611 16.3899 155.328 80.2619 160.359C69.0366 122.925 175.917 95.5579 267.791 95.5579C363.144 98.1831 427.3 120.861 430.263 154.845C501.798 164.962 538.856 92.8554 517.51 67.6826Z"/>
  <text id="shape0" transform="matrix(1.4155342904 0.0031282209726 -0.0031198828528 1.4117612849 54.60726608 144.18906797)" fill="#000000" stroke="#000000" stroke-width="4.8" stroke-linecap="square" stroke-linejoin="bevel" font-family="Renner*" font-size="72" font-size-adjust="0.347826" font-weight="600"><tspan x="0">MESH</tspan></text>
  <text id="shape111" transform="matrix(0.9442623242 0 0 0.92307699562 180.32405968 220.00638097)" fill="#000000" stroke="#000000" stroke-width="2.4" stroke-linecap="square" stroke-linejoin="bevel" font-family="Renner*" font-size="48" font-size-adjust="0.347826" font-weight="600"><tspan x="0">THE</tspan></text>
  <text id="shape211" transform="matrix(1.2889347309 0 0 1.411764756 44.722881986 343.92292104)" fill="#000000" stroke="#000000" stroke-width="4.8" stroke-linecap="square" stroke-linejoin="bevel" font-family="Renner*" font-size="72" font-size-adjust="0.347826" font-weight="600"><tspan x="0">PLANET</tspan></text>
  <rect id="shape011" transform="matrix(1.0000001645 0 0 1.0000001957 24.061677209 15.890462939)" fill="none" stroke="#000000" stroke-width="10.8" stroke-linecap="square" stroke-linejoin="bevel" width="859.19996117" height="1291.4399416"/>
  <path id="shape021" transform="matrix(1.000000173 0 0 1.0000001636 313.26172734 796.61965076)" fill="#000000" fill-rule="evenodd" stroke="#000000" stroke-width="4.759197696" stroke-linecap="square" stroke-linejoin="bevel" d="M12.72 27.8309C12.4635 27.8851 7.7433 28.0987 0 10.0709C178.083 -26.0052 364.258 37.362 488.64 159.831C476.16 171.3 468.48 169.453 468.48 169.431C385.553 74.7668 157.555 -7.74105 12.72 27.8309Z"/>
  <path id="shape0111" transform="matrix(1.0000001356 0 0 1.000000158 313.02171393 662.09055048)" fill="#000000" fill-rule="evenodd" stroke="#000000" stroke-width="4.759197696" stroke-linecap="square" stroke-linejoin="bevel" d="M0 135C29.0696 53.2103 19.879 0.19351 20.4 0C248.134 1.2834 347.861 -0.305405 552.24 180.12C551.917 180.239 523.715 208.658 496.56 287.64C373.673 165.211 199.422 93.4325 0.72 135.72Z"/>
 </g>
</svg>
