<?xml version="1.0" standalone="no"?>
<!DOCTYPE svg PUBLIC "-//W3C//DTD SVG 20010904//EN" "http://www.w3.org/TR/2001/REC-SVG-20010904/DTD/svg10.dtd">
<!-- Created using Krita: http://krita.org -->
<svg xmlns="http://www.w3.org/2000/svg" 
    xmlns:xlink="http://www.w3.org/1999/xlink"
    xmlns:krita="http://krita.org/namespaces/svg/krita"
    xmlns:sodipodi="http://sodipodi.sourceforge.net/DTD/sodipodi-0.dtd"
    width="864.48pt"
    height="792.48pt"
    viewBox="0 0 864.48 792.48">
<defs/>
<g id="group0" transform="matrix(1.000000226 0 0 1.000000226 -264.69880144 385.73376946)" fill="none">
  <path id="shape0111" transform="matrix(0.7385778397 0.20024685575 -0.21124655271 0.77914842641 16.09446116 -5.6843418861e-14)" fill="#000000" fill-rule="evenodd" stroke="#000000" stroke-width="1.2408012" stroke-linecap="square" stroke-linejoin="bevel" d="M0 10.8L2.76 0L23.28 0.48L70.44 16.68L48.48 16.32L37.8 26.4Z"/>
  <path id="shape1" transform="matrix(0.7385778397 0.20024685575 -0.21124655271 0.77914842641 14.533859938 11.721739255)" fill="#000000" fill-rule="evenodd" stroke="#000000" stroke-width="1.2408012" stroke-linecap="square" stroke-linejoin="bevel" d="M0 0L0.111434 3.12L7.35461 6.36L7.24318 2.88Z"/>
  <path id="shape2" transform="matrix(0.7385778397 0.20024685575 -0.21124655271 0.77914842641 20.66092319 17.197026136)" fill="#000000" fill-rule="evenodd" stroke="#000000" stroke-width="1.2408012" stroke-linecap="square" stroke-linejoin="bevel" d="M0 0L0 3.84L25.68 14.64L25.68 10.68Z"/>
  <path id="shape3" transform="matrix(0.7385778397 0.20024685575 -0.21124655271 0.77914842641 41.09637164 22.536843968)" fill="#000000" fill-rule="evenodd" stroke="#000000" stroke-width="1.2408012" stroke-linecap="square" stroke-linejoin="bevel" d="M0 10.68L0 16.68L17.16 16.44L23.4 7.44L23.52 0.24L11.16 0L8.04 3.12L8.28 3.96L19.32 3.96L15.6 12.84L4.56 12.48L8.16 3Z"/>
  <path id="shape4" transform="matrix(0.7385778397 0.20024685575 -0.21124655271 0.77914842641 58.657562469 27.599232541)" fill="#000000" fill-rule="evenodd" stroke="#000000" stroke-width="1.2408012" stroke-linecap="square" stroke-linejoin="bevel" d="M10.92 0.48L3.12 10.56L0 10.68L2.4 7.08L2.4 0Z"/>
  <path id="shape5" transform="matrix(0.7385778397 0.20024685575 -0.21124655271 0.77914842641 24.56564249 26.129768582)" fill="#000000" fill-rule="evenodd" stroke="#000000" stroke-width="1.2408012" stroke-linecap="square" stroke-linejoin="bevel" d="M0.0848528 0L6.44881 2.54558L4.20021 3.90323L0 0Z"/>
  <path id="shape6" transform="matrix(0.7385778397 0.20024685575 -0.21124655271 0.77914842641 25.145852425 29.161477037)" fill="#000000" fill-rule="evenodd" stroke="#000000" stroke-width="1.2408012" stroke-linecap="square" stroke-linejoin="bevel" d="M12.96 3.41373L0 3.17373L0.0558463 2.46073L4.04393 1.99404L6.67437 0Z"/>
  <path id="shape7" transform="matrix(0.7385778397 0.20024685575 -0.21124655271 0.77914842641 11.060024345 28.043659723)" fill="#000000" fill-rule="evenodd" stroke="#000000" stroke-width="1.2408012" stroke-linecap="square" stroke-linejoin="bevel" d="M10.32 0.36L11.34 3.36L1.44 6.18L0 0Z"/>
  <path id="shape8" transform="matrix(0.7385778397 0.20024685575 -0.21124655271 0.77914842641 3.9513301911 25.965760923)" fill="#000000" fill-rule="evenodd" stroke="#000000" stroke-width="1.2408012" stroke-linecap="square" stroke-linejoin="bevel" d="M28.3963 2.22L28.2763 4.14L9.43632 9.06L7.21632 0L0 1.86458L4.81661 18.7048L8.17632 18.12L9.37632 11.88L34.9963 3.54L34.8763 1.98Z"/>
  <path id="shape9" transform="matrix(0.7385778397 0.20024685575 -0.21124655271 0.77914842641 11.186113193 30.035076027)" fill="#000000" fill-rule="evenodd" stroke="#000000" stroke-width="1.2408012" stroke-linecap="square" stroke-linejoin="bevel" d="M26.7 0.18L26.82 2.7L1.08 11.22L0 16.44L10.62 16.02L11.28 10.5L30.84 2.7L30.6 0L26.58 0.06Z"/>
 </g><g id="group01" transform="matrix(1.0000000226 0 0 1.0000000226 228.65997628 272.86938921)" fill="none">
  <rect id="shape03" transform="matrix(2.0708403441 0 0 2.0909207022 5.6843418861e-14 0)" fill="none" stroke="#000000" stroke-width="6.72" stroke-linecap="square" stroke-linejoin="bevel" width="400.84802595" height="358.78579761"/>
  <path id="shape21" transform="matrix(2.0708405374 0 0 2.1931737023 483.78708071 576.23018837)" fill="#000000" fill-rule="evenodd" stroke="#000000" stroke-opacity="0" stroke-width="2.2392" stroke-linecap="square" stroke-linejoin="bevel" d="M12.12 25.32L25.32 24.48L29.16 19.92L29.88 6.24L24.36 0.24L5.52 0L2.16 3.72L0 9.36L0.72 16.8L5.04 21.12L12.36 25.2Z"/>
  <path id="shape31" transform="matrix(2.0708405374 0 0 2.1931737023 474.27327226 526.43471155)" fill="none" stroke="#000000" stroke-width="2.4" stroke-linecap="square" stroke-linejoin="bevel" d="M6.99418 39.1448L1.11418 28.7048L0.651761 18.1491C0.0727708 15.6649 -0.181926 12.37 0.142502 7.62729C3.48641 2.96846 4.91232 -2.07471 15.4301 0.882249C15.2474 9.96971 14.6555 14.9654 13.834 17.6647L12.3615 22.9009L7.60969 28.8406L6.63418 34.7048L6.93087 39.1078Z"/>
  <path id="shape41" transform="matrix(2.0708405374 0 0 2.1931737023 531.85229173 524.38336433)" fill="none" stroke="#000000" stroke-width="2.4" stroke-linecap="square" stroke-linejoin="bevel" d="M0 23.4968L1.38937 14.28L2.71514 6.86557L15.9094 0L26.3042 10.4294L31.5651 21.1208L40.0504 21.9694L59.7364 16.0298L64.5095 19.9201L38.1095 33.0001L28.2695 37.3201L22.7495 41.6401L13.8695 44.5201L1.26946 47.0401L5.09117 43.3524L6.27911 30.1153L0.169706 23.4968Z"/>
  <path id="shape51" transform="matrix(2.0708405374 0 0 2.1931737023 652.63133861 246.4645907)" fill="none" stroke="#000000" stroke-width="1.2" stroke-linecap="square" stroke-linejoin="bevel" d="M34.8447 54.2216L38.5858 32.76L36.0658 0L23.1058 5.4L10.5058 16.2C5.99888 22.2977 6.09652 25.3702 3.30584 32.04C-0.266969 38.8283 -0.41839 41.5447 0.425838 46.44C0.971807 53.1301 3.80475 62.5453 3.78858 62.6486C16.3853 37.5568 22.4287 51.8678 35.0144 54.1633L31.6256 54.5999L34.9858 54.12Z"/>
  <path id="shape61" transform="matrix(2.0708405374 0 0 2.1931737023 423.40137061 245.67504813)" fill="none" stroke="#000000" stroke-width="1.2" stroke-linecap="square" stroke-linejoin="bevel" d="M4.56 55.68L8.88 48.96L6 37.68C4.53497 31.9539 3.36718 28.7131 3.36 13.92L0 0L9.6 12L25.92 21.36L32.16 39.36L32.64 55.68C32.2781 51.6778 30.7769 47.7895 21.4841 44.6804C6.50218 55.5615 5.17035 60.5925 2.4 66.24Z"/>
  <path id="shape71" transform="matrix(2.0708405374 0 0 2.1931737023 200.68635557 441.80495525)" fill="#000000" fill-rule="evenodd" stroke="#000000" stroke-width="1.2" stroke-linecap="square" stroke-linejoin="bevel" d="M71.0681 70.6526L67.429 53.0034C66.5574 46.9685 68.3717 43.8569 68.0276 40.8663C66.1489 35.6215 73.2663 26.4911 75.5749 19.5714C71.7767 19.1877 65.5477 9.35134 65.3926 23.1352C66.7861 30.596 64.8137 34.6909 63.1481 39.0926L56.5679 40.9543L51.2681 27.5726C48.7618 23.2008 48.7753 11.7916 50.7979 0.0552535C44.4891 -0.356499 40.0236 1.3823 41.8035 10.4073C44.2575 19.9483 51.1562 33.2502 48.3881 38.3726L39.7481 34.7726C34.8591 28.4566 34.08 19.6747 31.2817 12.1044C26.5239 6.82527 22.1226 2.61572 20.9297 8.03142C23.0455 17.5561 34.3052 25.4739 36.8681 38.7326L36.0335 42.9908C18.667 37.0511 15.8646 20.8703 7.35325 21.6079C5.08962 25.18 8.36785 34.2909 11.0868 36.3723L20.76 39.5967L29.6681 44.8526L33.6281 53.4926C25.4258 59.8647 8.32423 49.9986 0.0559073 53.6822C-0.749655 60.4807 7.3425 62.2604 11.9353 63.3555C20.2929 60.4284 25.8571 58.428 31.112 60.4705C35.9244 61.539 37.7356 60.9731 41.1247 64.8828L55.5881 77.9726L64.9481 82.2926C65.0281 82.2926 67.0681 78.4126 71.0681 70.6526Z"/>
  <path id="shape81" transform="matrix(2.0708405374 0 0 2.1931737023 348.93106385 720.32704308)" fill="none" stroke="#000000" stroke-width="2.4" stroke-linecap="square" stroke-linejoin="bevel" d="M1.95163 0C1.68423 2.06647 0.154228 13.203 0 12.9825"/>
  <path id="shape111" transform="matrix(2.0708405374 0 0 2.1931737023 423.40137061 245.14868632)" fill="#000000" fill-rule="evenodd" stroke="#000000" stroke-width="1.5936" stroke-linecap="square" stroke-linejoin="bevel" d="M0 0L9.84 12.24L26.4 21.6L32.64 39.6L33.5999 55.6799L36.48 49.44L47.04 42.96L53.04 39.12L53.52 35.52L51.6 31.68L39.12 15.12L19.68 5.52Z"/>
  <path id="shape12" transform="matrix(2.0708405374 0 0 2.1931737023 610.0255197 258.30772864)" fill="#000000" fill-rule="evenodd" stroke="#000000" stroke-width="1.5936" stroke-linecap="square" stroke-linejoin="bevel" d="M44.04 0L12.24 14.28L2.28 30.48L0.48 34.92L0 39.36L2.04 43.92L7.08 50.28L18.7625 58.4366L24.12 58.56L21.4777 49.7816L20.6292 41.466L20.4595 32.3019L24.0233 25.5137L31.4904 9.56133L44.04 0.12Z"/>
  <path id="shape13" transform="matrix(2.0708405374 0 0 2.1931737023 544.93664483 349.30892211)" fill="#000000" fill-rule="evenodd" stroke="#000000" stroke-opacity="0" stroke-width="1.5936" stroke-linecap="square" stroke-linejoin="bevel" d="M84.6438 6.16726C114.358 29.586 105.844 82.2003 103.911 79.467C103.9 79.667 97.0876 89.9271 97.071 89.547C97.9132 84.2594 99.5675 84.9791 83.3711 87.1168L75.831 67.227L73.311 52.467C73.2999 52.5318 75.4476 40.9705 75.471 41.307C75.5235 41.4929 60.2093 46.2828 59.991 46.347C57.7266 50.3601 33.8648 15.0599 0.831003 40.827C-4.2332 17.7355 15.68 11.5255 11.391 9.62698C11.5276 9.69918 38.0782 19.4098 43.7447 12.0221C43.7913 12.0827 53.1661 15.677 55.2848 15.7556C64.8646 -9.4381 75.4578 2.16463 84.6438 6.16726Z"/>
  <path id="shape14" transform="matrix(2.0708405374 0 0 2.1931737023 697.24932331 524.92537946)" fill="#000000" fill-rule="evenodd" stroke="#000000" stroke-opacity="0" stroke-width="1.5936" stroke-linecap="square" stroke-linejoin="bevel" d="M19.9174 5.68514C25.4086 6.56265 21.3175 9.05983 21.784 12.3884C19.8392 7.47002 20.0433 5.18546 16.3534 8.6549C14.0189 13.3475 17.8423 11.5177 20.5961 12.5581C11.1979 14.5156 17.4137 13.483 11.6867 8.73984C15.8878 13.3785 12.9412 17.7625 12.7896 17.6493C13.921 11.273 11.42 13.1573 6.93491 11.7945C9.87724 14.5846 10.8106 16.423 9.7349 17.3099C9.55464 18.0286 9.52717 14.0055 0 16.193L3.88021 0L19.8325 5.76999Z"/>
  <path id="shape15" transform="matrix(2.0708405374 0 0 2.1931737023 535.72376123 329.89291834)" fill="none" stroke="#000000" stroke-width="1.2" stroke-linecap="square" stroke-linejoin="bevel" d="M36.36 1.2L0 0"/>
  <path id="shape16" transform="matrix(2.0708405374 0 0 2.1931737023 314.66651679 388.47323374)" fill="none" stroke="#000000" stroke-width="2.4" stroke-linecap="square" stroke-linejoin="bevel" d="M0 101.038L10.7973 139.56L25.5573 158.88L39.7172 155.21C43.8616 152.495 48.7148 131.119 48.1964 110.542C47.0956 101.1 43.7493 98.7732 38.1573 103.56C32.5653 108.347 24.4766 106.077 15.1886 94.9696C19.0837 98.9696 26.1829 107.39 33.0925 108.675C40.3919 97.5831 39.8524 96.6306 46.7973 88.8C51.6331 80.1653 53.2837 79.2068 60.4144 76.2611C52.7684 72.0793 51.0969 63.3141 50.9964 63.744C52.547 66.7954 49.1 60.3601 48.2219 50.1514L51.9299 21.1068L55.0773 0"/>
  <path id="shape18" transform="matrix(2.0708405374 0 0 2.1931737023 610.61222205 233.86973454)" fill="#000000" fill-rule="evenodd" stroke="#000000" stroke-opacity="0" stroke-width="1.2" stroke-linecap="square" stroke-linejoin="bevel" d="M54.5567 59.9828L58.2767 38.3228C57.4444 23.0523 56.8499 12.1448 56.4932 5.60029C50.825 8.34951 41.3781 12.9315 28.1524 19.3464L0.278218 44.7599C-0.533408 43.2684 0.706402 40.3857 0.532776 34.7472C1.36899 36.7088 2.03487 40.3738 3.29049 38.1413C3.45474 34.5665 4.10468 34.8737 2.23669 31.3028C3.69563 32.6041 5.93814 33.9378 4.93669 35.9228C6.44199 34.9069 3.53086 35.1932 5.41669 29.1428C5.54505 31.0394 5.66772 32.303 7.36343 31.7774C9.06407 29.5909 10.3257 25.1597 6.25669 24.5228C8.00017 24.3339 9.02573 25.2377 9.86659 26.1771C11.7132 24.7409 13.221 24.2507 10.1567 20.1428C11.3329 21.1408 13.7665 21.4014 13.8971 23.7588C14.6909 19.8979 16.2516 20.6318 20.8367 18.7628C15.3977 23.2501 20.061 20.4908 21.2567 20.7428C23.3588 18.892 27.2927 19.74 24.2067 15.9099C25.0781 15.8379 25.9804 16.2594 26.9644 17.9888C26.9844 16.6009 28.6083 15.0525 24.4188 14.0856C29.0532 14.3919 29.1043 15.6149 29.3403 16.8009C30.5513 14.9911 30.6082 12.1321 34.0921 12.3885C31.2335 13.9099 31.7254 15.0254 32.7768 15.2735C36.0921 13.0208 39.8764 9.99502 40.159 6.32153C39.8637 8.3313 40.5559 10.4398 39.2257 12.3461C40.3468 11.4155 41.8855 10.4943 41.6864 6.9155C41.8609 8.14467 42.439 9.27294 42.1955 10.6066C44.2557 10.0472 45.5419 5.7664 46.6927 3.18198L44.5714 9.37624C47.296 7.7079 47.5797 6.65487 49.1534 5.09117C48.5672 6.16515 47.4505 7.3838 48.0079 8.14587C54.8436 3.32182 52.6675 4.11361 54.7113 1.52735C53.902 3.13225 53.8876 4.55668 52.2081 6.32153C55.0649 4.82752 58.0488 3.22782 62.0935 0C61.1431 1.154 59.5592 3.07733 57.3417 5.76999C58.7672 6.06698 59.7855 6.27911 60.3964 6.40639C57.0996 6.68573 57.8748 7.83622 57.9357 9.50352C58.8069 9.26593 59.4291 9.09622 59.8025 8.9944C56.1639 11.4605 58.4601 11.6371 58.2751 13.7886C58.8266 13.4237 59.7459 12.8156 61.0328 11.9642C57.7907 16.0584 58.8866 16.3555 58.36 18.6676C58.9709 18.4385 59.9892 18.0567 61.4147 17.5221C58.7965 19.1847 58.9488 20.1834 58.36 21.7223C59.183 22.353 61.1024 24.4741 62.5602 20.6617C62.0832 21.875 62.6623 22.9744 59.2085 24.6073C59.3142 23.0919 60.4893 27.6943 63.3663 26.0074C62.0067 26.7366 59.5606 26.6717 59.7176 28.4681C59.5566 29.8758 61.313 30.9963 62.0511 28.8075C62.853 31.5122 59.7371 30.7881 60.8207 32.4138C61.6642 31.6387 65.0575 34.2044 64.2997 34.4078C64.2941 34.4026 58.3918 32.118 59.4206 37.2928C59.4752 37.2411 59.8787 41.7245 65.3179 34.8321C63.895 38.0115 61.8891 40.2762 58.5297 42.7658C60.0189 42.6975 62.3015 42.8285 63.2814 39.202C62.6942 43.3558 60.8307 43.3746 58.6994 45.269C60.8892 44.6795 62.7405 43.791 66.0816 42.4688C63.717 44.2727 59.7237 45.4657 59.0388 47.8994C61.9873 46.3229 63.7497 46.9048 66.2937 46.5418C58.1304 48.729 58.7498 48.9221 58.1903 49.0449C60.997 48.9616 62.5865 48.6491 64.4694 47.5176C61.8581 50.2616 60.1142 49.1867 57.2993 50.8693C61.3264 49.2427 65.6581 51.9097 66.1967 52.6028C59.2626 49.926 58.4384 52.505 58.4024 52.6936C65.7759 54.4889 62.7092 54.5924 66.421 56.215C60.299 52.5983 58.6 55.1864 58.4872 55.2816C60.7164 55.4736 61.6292 57.1698 63.1542 58.1666C59.3188 55.6968 57.2989 56.4437 56.4767 58.0028C58.8197 57.5947 60.4129 58.936 62.3299 59.5219C56.6618 58.9274 56.5663 60.1102 55.3053 60.8395C55.1556 60.6682 54.906 60.3826 54.5567 59.9828Z"/>
  <path id="shape19" transform="matrix(2.0708405374 0 0 2.1931737023 524.11826362 328.77904563)" fill="#000000" fill-rule="evenodd" stroke="#000000" stroke-opacity="0" stroke-width="1.2" stroke-linecap="square" stroke-linejoin="bevel" d="M19.0081 39.8808C19.0077 38.9112 29.5013 23.5287 29.3601 23.4194C34.0626 23.5226 26.0092 7.11892 38.4841 12.0278C37.7548 6.65364 42.9325 2.25483 43.0214 1.95161L4.83768 0C5.86003 0.94272 -0.0382376 48.9782 0.00107237 48.8752C-0.0896774 48.8456 5.59836 62.9373 9.844 64.4881C8.95794 43.5672 18.1021 42.3728 19.0081 39.8808Z"/>
  <path id="shape20" transform="matrix(2.0708405374 0 0 2.1931737023 420.91610787 342.78877964)" fill="#000000" fill-rule="evenodd" stroke="#000000" stroke-width="1.5936" stroke-linecap="square" stroke-linejoin="bevel" d="M2.64 46.1999C2.20611 45.4591 2.67123 34.561 12.24 36.1199C35.2458 28.0237 48.1062 42.317 49.44 46.6799C49.099 46.772 53.4679 27.3405 52.8 13.7999C13.083 19.2984 25.357 17.5257 34.5634 11.4312C33.1122 5.94217 27.4402 2.68362 22.5602 0L9.72013 6.48C4.69995 10.3899 4.55864 16.7393 3.12013 22.44L0 56.0399Z"/>
  <path id="shape211" transform="matrix(2.0708405374 0 0 2.1931737023 412.89209405 229.77558831)" fill="#000000" fill-rule="evenodd" stroke="#000000" stroke-opacity="0" stroke-width="1.5936" stroke-linecap="square" stroke-linejoin="bevel" d="M13.831 56.3423L8.90956 35.2988L8.40044 21.0435L4.66692 6.78823L24.6922 12.0491L44.3779 23.4193C48.6771 29.4721 54.1643 36.0341 58.4635 42.0869C55.2788 36.6881 59.4182 35.6213 60.2455 33.432L56.0877 35.8079C57.6532 33.6017 57.7842 31.3955 58.2939 29.1894C55.2282 35.4402 55.9372 32.0178 54.3059 34.4502C53.6836 31.6218 54.6735 30.9995 54.8998 29.3591C53.7967 29.9248 52.8633 30.6602 52.8633 32.5835C52.5805 29.9531 53.825 27.662 51.7602 25.1164C51.9016 29.6419 51.4491 27.3792 50.5723 28.5954C47.258 24.4072 49.0825 23.4082 51.336 21.892L46.9236 24.0982C47.574 22.0617 48.9878 22.5708 48.8749 17.9888C47.6305 24.0416 46.2164 20.2515 44.8872 21.3829C42.0586 16.32 42.5393 16.1786 48.8749 13.3219C43.9915 14.747 38.9083 13.0579 43.1901 19.4313L38.5232 13.0673C38.3252 14.0007 43.0487 20.0253 38.9475 18.4979C36.6037 18.2916 37.6582 15.7065 37.3352 14.0856L36.5716 17.1403C36.3237 13.8632 33.2661 11.9078 30.8016 10.1823C31.4238 12.0491 35.8645 14.934 32.6684 15.7825C29.2883 14.4099 28.1289 11.5549 27.9166 6.78822C28.0277 9.56615 27.2324 15.0632 28.7651 13.5765L24.777 8.82469C25.9978 11.5063 26.5422 13.0812 25.2861 11.7097C20.6758 9.87121 23.1083 7.69333 22.1466 5.76999L20.9587 10.0126L17.3948 5.76999C17.7777 7.05057 19.5416 9.29788 17.904 9.16411C13.8876 7.66504 15.1321 5.48715 13.7462 3.64867C13.8964 5.20464 12.1489 7.79574 14.5098 8.14587L9.07925 3.47897C9.62697 4.71461 11.7653 6.96243 10.0975 6.78823C7.79956 6.48401 7.13666 4.54475 6.61852 2.46073C6.24041 3.73353 6.07818 5.00632 7.0428 6.27911L1.10309 0C2.46073 2.885 6.10941 5.43058 5.17603 8.65499L0 9.07925C2.73322 9.89374 5.43197 8.60451 5.17604 11.8794L3.13957 13.0673C4.68087 13.2131 6.50578 12.8727 6.53368 15.6129L4.1578 19.5162L6.70339 17.4797C8.01583 21.1676 5.65348 20.3257 4.15779 21.8072L8.06103 21.3829C7.89132 22.7405 5.34573 23.7588 3.98808 24.9467C7.12907 23.6734 8.03107 24.2124 7.89133 28.0014C5.54547 25.5551 5.98871 29.532 4.4972 30.7167C6.87683 28.4021 7.98473 27.6357 8.40044 31.735C8.54186 34.0826 5.62857 32.1875 4.24264 32.4138C6.00678 32.9394 8.50699 35.3107 9.1641 37.8444C7.50776 41.5091 6.59495 36.1121 5.34574 34.2805C5.4687 39.3569 8.15072 40.5948 10.4369 42.4264C9.28704 40.5498 8.75667 41.2782 5.34573 41.6627C13.3785 43.5578 8.42872 43.6709 10.946 45.3114C9.24897 44.576 9.30421 44.7592 7.12764 43.7841C8.91982 45.3373 11.2802 46.4572 10.0126 47.6024C6.36397 47.0085 7.29735 46.7539 4.41235 45.6508C7.58018 48.9601 7.94787 47.9419 11.1157 49.7238C5.21896 47.3264 6.70467 48.8746 3.39411 50.0632C14.475 49.5623 7.30398 51.8934 11.9643 51.4208C8.49591 50.4638 7.74298 50.7905 6.19426 53.033C12.7676 49.7139 9.08254 54.5464 12.0491 52.7784C10.5172 55.0113 9.05655 55.1264 3.64867 54.1361C6.94796 55.0663 7.31665 57.5697 12.4734 54.4755C4.40547 58.008 7.71096 58.2549 5.68514 60.9243C9.33725 55.852 10.8193 56.308 13.831 56.3423Z"/>
  <path id="shape0" transform="matrix(2.0708403957 0 0 2.1931735673 688.0493613 579.83352512)" fill="#000000" stroke="#000000" stroke-width="1.2" stroke-linecap="square" stroke-linejoin="bevel" d="M62.8825 35.917C63.0056 26.9976 57.6912 7.19926 41.9625 0.293842C35.7651 -2.00859 23.5105 9.62801 16.4425 20.9169L8.57728 38.1793C8.15305 38.9625 -1.65101 43.61 0.24249 59.3169C2.97101 66.2598 5.21874 77.7645 5.16249 77.5569L53.1625 77.5569C56.5205 69.6941 60.1179 74.0412 62.8825 35.917Z"/>
  <path id="shape1111" transform="matrix(2.0708403969 0 0 2.1931735536 400.78770856 589.68702442)" fill="#000000" fill-rule="evenodd" stroke="#000000" stroke-width="1.4087988" stroke-linecap="square" stroke-linejoin="bevel" d="M0 73.0642C8.13406 68.1107 11.268 70.5966 16.92 43.3042C23.2392 25.4753 19.2343 9.68297 15.0941 0C29.2142 1.52482 41.0943 26.7375 50.52 37.0642C78.6047 27.1253 139.803 -7.78332 152.76 3.22417C141.999 11.8525 137.753 15.0815 125.4 44.2642C123.389 54.5648 135.203 71.9322 143.16 73.1842L0.12 72.9442Z"/>
  <path id="shape011" transform="matrix(2.070840339 0 0 2.1931735889 757.88338222 523.06761279)" fill="#000000" stroke="#000000" stroke-width="2.4" stroke-linecap="square" stroke-linejoin="bevel" d="M20.16 37.92C11.8494 21.2851 6.95995 10.8283 6.95994 10.7999L0 0"/>
  <path id="shape01111" transform="matrix(2.0708403502 0 0 2.193173504 408.67467111 332.50098404)" fill="#000000" fill-rule="evenodd" stroke="#000000" stroke-opacity="0" stroke-width="1.8" stroke-linecap="square" stroke-linejoin="bevel" d="M16.8314 9.97079L10.9514 18.0108L3.99141 63.8508L2.9114 76.2108C-1.75697 77.142 1.17325 72.1204 0 68.3914C1.47363 71.1506 0.780374 74.8733 2.54558 70.343C2.38332 70.1189 2.87251 67.4044 0.339411 66.3549L3.51141 66.2508C1.07817 66.2798 1.94742 62.475 0.763675 55.918C3.12672 59.421 2.22376 63.6085 3.9914 60.1308C3.48633 56.4932 2.60568 60.0247 2.71529 53.5421C4.565 58.2427 3.26745 58.0071 4.24264 54.4755C2.00794 44.2591 4.21014 51.3166 2.54558 47.9418C4.61187 50.5966 5.49942 47.6925 5.26087 51.4208C5.38251 49.6484 3.70071 47.0742 4.32749 44.8023C4.75747 46.8132 4.96877 50.0883 6.1094 41.3233C7.10924 41.0447 7.57861 36.7706 4.07293 38.6929L6.8714 36.7308C4.5038 36.186 6.06604 31.0375 6.1094 30.9713C7.01561 33.3986 6.9914 38.929 7.80646 29.953C8.06826 29.1358 9.54187 25.6983 6.53367 24.777L8.90954 24.0133C4.58509 19.0684 8.82705 20.2273 8.14587 17.0554C9.19866 17.6786 8.08485 23.357 10.0126 17.7342C10.9253 16.917 10.2463 14.001 8.14587 15.1887C8.07658 15.1501 10.2357 11.6625 11.1914 15.6108C12.6326 13.1308 12.1521 13.2563 11.2854 10.7763L15.0189 11.8794C12.684 8.13279 15.6907 6.53875 17.3948 0C15.2948 11.7649 18.3437 9.58969 16.8314 9.97079Z"/>
  <path id="shape011111" transform="matrix(2.0708403034 0 0 2.1931734544 313.96348282 596.75818729)" fill="none" stroke="#000000" stroke-width="1.2" stroke-linecap="square" stroke-linejoin="bevel" d="M16.3766 0L10.5218 12.3888L0 6.78844L2.80014 16.7162L11.0309 23.759L21.9769 6.44903L16.122 0Z"/>
  <path id="shape11111" transform="matrix(2.0708403034 0 0 2.1931734544 319.58649338 596.35258395)" fill="#000000" fill-rule="evenodd" stroke="#000000" stroke-width="1.2408012" stroke-linecap="square" stroke-linejoin="bevel" d="M19.3464 6.29459L8.14587 24.1137L0 16.8163L7.97616 45.4966C12.2698 53.4309 13.2076 64.7211 22.0517 68.1049L34.5317 64.7449C50.5015 60.4647 59.5079 -3.88302 43.784 0.184934C43.7124 0.083641 40.0063 6.38652 35.2988 9.34929C34.0334 12.3445 30.9566 12.6223 26.9832 11.5555Z"/>
  <path id="shape011111" transform="matrix(2.0708402565 0 0 2.1931734048 814.54150505 687.81872333)" fill="none" stroke="#000000" stroke-width="2.4" stroke-linecap="square" stroke-linejoin="bevel" d="M0 0L1.91995 27.36"/>
  <path id="shape22" transform="matrix(2.0647213799 -0.16847073959 0.1590736003 2.1866930607 749.41762205 404.6716389)" fill="#000000" fill-rule="evenodd" stroke="#000000" stroke-width="0.3432001536" stroke-linecap="square" stroke-linejoin="bevel" d="M1.4074 55.7231L4.44138 33.0627L0 0.104114C1.90099 -0.104292 3.25698 0.000178391 4.06794 0.417523C1.56487 0.690192 -1.69676 1.23578 4.44252 4.01773C3.85179 4.56204 2.26542 2.81263 3.51487 7.59625L6.23906 8.1672C3.997 10.7967 4.69421 10.117 4.94083 12.5203C6.42028 13.7908 6.84889 12.3472 8.60394 11.8397C6.18162 14.1819 5.48678 14.0687 5.42314 15.5788C6.84182 17.1576 6.86509 17.9004 8.84286 14.9874C7.41801 17.7543 7.89647 18.2856 6.74406 19.0277C7.74723 19.8165 8.431 21.1376 10.0533 20.8944C8.3272 21.1798 6.57038 21.4413 6.82892 23.2703C7.56691 25.0306 8.7222 24.8436 10.1382 23.44C9.52909 25.6216 8.37436 25.8934 7.33803 26.5796C12.293 26.8348 9.84726 29.1863 10.9473 30.0502C9.26574 29.842 10.5306 26.278 5.96218 30.6873L7.0474 32.5631C7.46474 34.1635 8.91863 36.6858 12.5037 33.082C10.5922 35.5507 7.32337 37.6343 5.4531 38.677L13.5615 38.0981C10.8409 40.037 6.86535 39.9404 6.5674 42.2831C8.74463 40.404 8.70201 43.0663 11.2877 42.6168C6.01851 43.6439 7.51389 44.4366 5.1274 45.1631C7.38318 44.6356 9.5522 43.9538 13.7868 46.9442C9.95325 45.5924 6.84218 45.1601 5.4874 46.9631C10.7049 48.1448 12.0622 49.3264 14.296 50.5081C11.4223 49.8405 8.04049 47.3947 5.98039 49.5747C8.11791 49.9302 9.39848 51.4283 10.9019 52.6294C4.37524 49.6434 5.2094 51.6628 3.9274 52.2431C5.89669 52.0084 8.12235 53.0556 10.3079 53.9022C5.36031 53.3207 2.98298 54.2814 1.4074 55.7231Z"/>
  <path id="shape32" transform="matrix(0.3530250374 2.1610698519 -2.0405274096 0.37387969489 750.39095407 361.40905303)" fill="#000000" fill-rule="evenodd" stroke="#000000" stroke-width="0.3432001536" stroke-linecap="square" stroke-linejoin="bevel" d="M0 13.6667L7.83006 8.06642C15.7896 5.62717 18.8275 4.84307 16.9437 5.71413C19.3521 2.63592 16.131 3.09243 14.8878 0C15.9924 4.98682 13.922 3.08903 12.3118 5.03456C11.4948 4.57726 11.6511 2.85207 12.1182 1.22581C11.0192 3.68231 9.91492 5.74904 9.04885 6.29679C8.93351 5.24459 7.73077 5.85979 8.53699 2.9201C7.36604 6.04124 7.77841 6.50433 5.97195 8.75772C6.34717 7.42694 6.43847 7.06802 6.09276 5.78536C6.03294 8.09308 5.52029 8.87979 3.85288 9.93318C5.10878 7.28618 3.9333 6.81392 3.9075 5.04195C3.99531 7.13928 2.18961 10.0145 0 13.6667Z"/>
  <path id="shape42" transform="matrix(1.8348624429 1.0167435179 -0.96003052148 1.9432554001 549.71289202 289.22308543)" fill="#000000" fill-rule="evenodd" stroke="#000000" stroke-width="0.3432001536" stroke-linecap="square" stroke-linejoin="bevel" d="M34.9916 3.48382C35.4929 1.61244 31.7939 2.48097 32.4984 0C31.3808 2.75634 33.2447 2.96553 31.4833 4.64904C31.3907 3.01224 30.6835 2.14625 30.3898 0.91174C30.5162 3.43502 30.386 4.39966 28.9483 5.80568C29.7472 3.91903 27.9499 2.88312 27.8485 0.996461C27.9452 6.53512 25.3644 6.29312 22.4683 8.56568C21.8117 8.06852 20.8013 7.7837 23.4194 5.32174C19.744 5.63153 20.1765 8.15325 19.1767 9.90379C19.2601 7.27481 16.3444 7.64491 14.3401 7.10364C16.1495 7.57648 17.5982 8.3771 16.9483 11.0857C16.2886 9.71499 15.2794 9.21803 14.1704 8.97041C14.7435 9.9555 15.8326 10.9406 15.1483 11.9257L7.89131 14.7404C7.64224 14.3817 8.69424 13.2795 10.0126 12.0251C7.33797 13.2791 3.11384 13.7128 3.98826 16.8457C3.38905 15.0506 1.70561 14.123 0 13.213C1.40723 14.9419 2.26329 16.9463 1.86676 19.577Z"/>
  <path id="shape52" transform="matrix(-1.6101344537 -1.3791755695 -1.3022464542 1.7052517937 581.60329872 368.56865229)" fill="#000000" fill-rule="evenodd" stroke="#000000" stroke-width="0.3432001536" stroke-linecap="square" stroke-linejoin="bevel" d="M25.562 0L0 45.5358C1.1035 45.5036 8.59698 36.8589 8.98552 36.9066C8.95994 37.0648 27.4108 28.9763 21.9201 21.8962C21.0093 12.9425 26.8938 10.9053 27.8332 13.412L24.5523 6.59149C28.3725 1.29563 30.935 10.3402 32.6972 11.4053C32.8768 1.72189 27.4971 1.22473 25.562 0Z"/>
  <path id="shape05" transform="matrix(0.10890673797 -2.1901383175 2.0679744499 0.11534030602 402.52060027 553.17248442)" fill="#000000" fill-rule="evenodd" stroke="#000000" stroke-width="0.3432001536" stroke-linecap="square" stroke-linejoin="bevel" d="M0 16.2256L10.2724 8.84191C20.7948 5.7811 22.7136 5.53571 22.6325 5.6006C27.5099 3.09083 22.2387 3.88043 20.5952 0C22.0555 6.25753 18.3258 2.59621 16.1972 5.03749C15.1171 4.46366 14.9101 5.07136 15.9249 1.44762C13.8761 6.9047 13.0285 5.93403 11.8836 6.62135C11.7311 5.30104 10.0783 6.77006 11.1442 3.0813C8.22124 7.13024 10.2041 6.88178 7.81599 9.70936C8.31202 8.03948 8.43272 7.5891 7.9757 5.9796C7.89662 8.87536 7.22767 8.75106 5.02338 10.0729C6.68366 6.75138 4.783 8.22517 4.74889 6.00167C4.86497 8.63343 2.89464 11.6427 0 16.2256Z"/>
  <path id="path3931" transform="matrix(-0.58414581027 0 0 0.75267624978 412.96411166 124.16828196)" fill="none" stroke="#000000" stroke-width="9.6" stroke-linecap="square" stroke-linejoin="bevel" d="M68.0654 278.219C67.4638 279.455 98.1736 266.002 104.225 270.177C110.277 274.351 112.195 279.064 78.3059 326.77C112.8 311.265 141.41 294.193 154.118 295.982C148.672 307.909 142.62 323.413 142.62 323.413C142.62 323.413 174.089 310.89 180.141 311.487C178.325 316.853 182.561 327.587 182.561 327.587L198.901 325.202L204.345 334.929C212.8 348.008 224.187 388.449 223.765 388.012C224.003 387.986 274.139 352.496 274.176 352.521L290.886 339.513L299.358 340.11L319.934 319.835L326.59 331.165L331.432 326.991L341.114 331.761L364.111 314.468L371.978 316.257L391.948 343.688L402.841 331.165L405.196 328.797C406.6 328.159 429.811 311.391 446.251 328.918L448.381 331.367L452.465 327.587L460.937 321.624L465.778 307.909L476.066 307.909L496.642 320.431L506.324 328.78L513.586 308.505L517.822 306.12L519.033 293.597L542.634 303.138L549.896 309.101L551.712 298.368L559.579 297.771L574.103 301.945L589.837 313.275L604.506 323.674L577.734 279.882L569.262 271.533L607.484 277.52C657.916 237.451 659.022 84.6759 607.909 34.1565C431.16 -11.9001 227.157 -10.581 46.1194 33.2883L9.359 115.977L49.3474 135.558L0 171.223L42.5409 178.216L24.6737 220.175L62.9605 244.651Z"/>
  <path id="shape01" transform="matrix(2.0708401304 0 0 2.1931732347 253.17806727 368.44584987)" fill="#000000" fill-rule="evenodd" stroke="#000000" stroke-width="2.88" stroke-linecap="square" stroke-linejoin="bevel" d="M65.88 50.2213C38.447 32.5322 6.36787 31.0214 22.0636 0L12.6 20.3413L0 9.90133C8.97192 25.9789 45.2378 39.7844 65.88 50.2213Z"/>
  <text id="shape02" transform="matrix(2.0708402677 0 0 2.1931733134 79.973032912 195.40739161)" fill="#000000" stroke="#000000" stroke-width="1" stroke-linecap="square" stroke-linejoin="bevel" font-family="Renner*" font-size="12" font-size-adjust="0.347826"><tspan x="0">I DO NOT</tspan></text>
  <text id="shape121" transform="matrix(2.0708402677 0 0 2.1931733134 111.28413762 250.14899573)" fill="#000000" stroke="#000000" stroke-width="1" stroke-linecap="square" stroke-linejoin="bevel" font-family="Renner*" font-size="12" font-size-adjust="0.347826"><tspan x="0">CONSENT TO</tspan></text>
  <text id="shape23" transform="matrix(2.1792289595 0 0 2.6318078167 66.885781231 312.56670519)" fill="#000000" stroke="#000000" stroke-width="1" stroke-linecap="square" stroke-linejoin="bevel" font-family="Renner*" font-size="12" font-size-adjust="0.347826"><tspan x="0">THIS RECORDING</tspan></text>
  <g id="group1" transform="matrix(0.93289757701 0 0 0.88598385813 607.37203345 15.517397727)" fill="none">
   <g id="group2" transform="matrix(1.1151041601 -0.033845782061 0.033834681205 1.1147384244 2.2737367544e-13 6.2214411423)" fill="none">
    <path id="shape0111111" transform="matrix(-2.3390029757 0.75206676961 0.7218922735 3.1147197065 164.75936961 -1.1368683772e-13)" fill="#000000" fill-rule="evenodd" stroke="#000000" stroke-width="1.2408012" stroke-linecap="square" stroke-linejoin="bevel" d="M0 10.8L2.76 0L23.28 0.48L70.44 16.68L48.48 16.32L37.8 26.4Z"/>
    <path id="shape111111" transform="matrix(-2.3390029757 0.75206676961 0.7218922735 3.1147197065 170.46967963 46.759948416)" fill="#000000" fill-rule="evenodd" stroke="#000000" stroke-width="1.2408012" stroke-linecap="square" stroke-linejoin="bevel" d="M0 0L0.111434 3.12L7.35461 6.36L7.24318 2.88Z"/>
    <path id="shape2111" transform="matrix(-2.3390029757 0.75206676961 0.7218922735 3.1147197065 151.30707897 68.182912198)" fill="#000000" fill-rule="evenodd" stroke="#000000" stroke-width="1.2408012" stroke-linecap="square" stroke-linejoin="bevel" d="M0 0L0 3.84L25.68 14.64L25.68 10.68Z"/>
    <path id="shape311" transform="matrix(-2.3390029757 0.75206676961 0.7218922735 3.1147197065 86.57733985 88.192423187)" fill="#000000" fill-rule="evenodd" stroke="#000000" stroke-width="1.2408012" stroke-linecap="square" stroke-linejoin="bevel" d="M0 10.68L0 16.68L17.16 16.44L23.4 7.44L23.52 0.24L11.16 0L8.04 3.12L8.28 3.96L19.32 3.96L15.6 12.84L4.56 12.48L8.16 3Z"/>
    <path id="shape411" transform="matrix(-2.3390029757 0.75206676961 0.7218922735 3.1147197065 30.981827536 107.27307758)" fill="#000000" fill-rule="evenodd" stroke="#000000" stroke-width="1.2408012" stroke-linecap="square" stroke-linejoin="bevel" d="M10.92 0.48L3.12 10.56L0 10.68L2.4 7.08L2.4 0Z"/>
   </g>
   <path id="shape511" transform="matrix(-2.3390029757 0.75206676961 0.7218922735 3.1147197065 169.98028196 103.92568799)" fill="#000000" fill-rule="evenodd" stroke="#000000" stroke-width="1.2408012" stroke-linecap="square" stroke-linejoin="bevel" d="M3.27953 1.98206L10.3735 10.6714L5.2239 11.6066L0 0Z"/>
   <path id="shape611" transform="matrix(-2.3390029757 0.75206676961 0.7218922735 3.1147197065 164.80700362 134.67793882)" fill="#000000" fill-rule="evenodd" stroke="#000000" stroke-width="1.2408012" stroke-linecap="square" stroke-linejoin="bevel" d="M12.96 5.71164L0 5.47164L0.0558463 4.75864L6.60552 3.63434L8.25425 0Z"/>
   <path id="shape711" transform="matrix(-2.3390029757 0.75206676961 0.7218922735 3.1147197065 211.24509582 138.2457702)" fill="#000000" fill-rule="evenodd" stroke="#000000" stroke-width="1.2408012" stroke-linecap="square" stroke-linejoin="bevel" d="M10.32 0.36L11.34 3.36L1.44 6.18L0 0Z"/>
   <path id="shape811" transform="matrix(-2.3390029757 0.75206676961 0.7218922735 3.1147197065 233.79128659 124.91585192)" fill="#000000" fill-rule="evenodd" stroke="#000000" stroke-width="1.2408012" stroke-linecap="square" stroke-linejoin="bevel" d="M28.92 3.85682L28.8 5.77682L9.95996 10.6968L7.4477 1.25353L0 0L6.55585 20.3202L8.36226 20.0382L9.89996 13.5168L35.52 5.17682L35.4 3.61682Z"/>
   <path id="shape911" transform="matrix(-2.3390029757 0.75206676961 0.7218922735 3.1147197065 210.96956008 146.16595684)" fill="#000000" fill-rule="evenodd" stroke="#000000" stroke-width="1.2408012" stroke-linecap="square" stroke-linejoin="bevel" d="M26.7 0.18L26.82 2.7L1.08 11.22L0 16.44L10.62 16.02L11.28 10.5L30.84 2.7L30.6 0L26.58 0.06Z"/>
  </g>
  <g id="group11" transform="matrix(3.3141622499 0 0 4.0111198944 4.9257076897 454.1140766)" fill="none">
   <path id="shape012" transform="matrix(0.57656036441 -0.50789420443 0.66419095923 0.6785220456 -5.6843418861e-14 35.77606776)" fill="#000000" fill-rule="evenodd" stroke="#000000" stroke-width="1.2408012" stroke-linecap="square" stroke-linejoin="bevel" d="M0 10.8L2.76 0L23.28 0.48L70.44 16.68L48.48 16.32L37.8 26.4Z"/>
   <path id="shape111111" transform="matrix(0.57656036441 -0.50789420443 0.66419095923 0.6785220456 10.820236364 44.59210408)" fill="#000000" fill-rule="evenodd" stroke="#000000" stroke-width="1.2408012" stroke-linecap="square" stroke-linejoin="bevel" d="M0 0L0.111434 3.12L7.35461 6.36L7.24318 2.88Z"/>
   <path id="shape21111" transform="matrix(0.57656036441 -0.50789420443 0.66419095923 0.6785220456 19.383926998 42.810380159)" fill="#000000" fill-rule="evenodd" stroke="#000000" stroke-width="1.2408012" stroke-linecap="square" stroke-linejoin="bevel" d="M0 0L0 3.84L25.68 14.64L25.68 10.68Z"/>
   <path id="shape3111" transform="matrix(0.57656036441 -0.50789420443 0.66419095923 0.6785220456 35.137587934 28.629654199)" fill="#000000" fill-rule="evenodd" stroke="#000000" stroke-width="1.2408012" stroke-linecap="square" stroke-linejoin="bevel" d="M0 10.68L0 16.68L17.16 16.44L23.4 7.44L23.52 0.24L11.16 0L8.04 3.12L8.28 3.96L19.32 3.96L15.6 12.84L4.56 12.48L8.16 3Z"/>
   <path id="shape4111" transform="matrix(0.57656036441 -0.50789420443 0.66419095923 0.6785220456 49.14495878 16.745408)" fill="#000000" fill-rule="evenodd" stroke="#000000" stroke-width="1.2408012" stroke-linecap="square" stroke-linejoin="bevel" d="M10.92 0.48L3.12 10.56L0 10.68L2.4 7.08L2.4 0Z"/>
   <path id="shape5111" transform="matrix(0.57656036441 -0.50789420443 0.66419095923 0.6785220456 30.237208973 45.145300672)" fill="#000000" fill-rule="evenodd" stroke="#000000" stroke-width="1.2408012" stroke-linecap="square" stroke-linejoin="bevel" d="M0.0848528 0L6.44881 2.54558L4.20021 3.90323L0 0Z"/>
   <path id="shape6111" transform="matrix(0.57656036441 -0.50789420443 0.66419095923 0.6785220456 33.539367978 46.578862774)" fill="#000000" fill-rule="evenodd" stroke="#000000" stroke-width="1.2408012" stroke-linecap="square" stroke-linejoin="bevel" d="M12.96 3.41373L0 3.17373L0.0558463 2.46073L4.04393 1.99404L6.67437 0Z"/>
   <path id="shape7111" transform="matrix(0.57656036441 -0.50789420443 0.66419095923 0.6785220456 25.22101082 57.987326632)" fill="#000000" fill-rule="evenodd" stroke="#000000" stroke-width="1.2408012" stroke-linecap="square" stroke-linejoin="bevel" d="M10.32 0.36L11.34 3.36L1.44 6.18L0 0Z"/>
   <path id="shape8111" transform="matrix(0.57656036441 -0.50789420443 0.66419095923 0.6785220456 11.191137793 70.118847046)" fill="#000000" fill-rule="evenodd" stroke="#000000" stroke-width="1.2408012" stroke-linecap="square" stroke-linejoin="bevel" d="M42.8464 2.22L42.7264 4.14L23.8864 9.06L21.6664 0L0 4.99121L12.6442 14.4558L19.5986 19.6613L23.8264 11.88L49.4464 3.54L49.3264 1.98Z"/>
   <path id="shape9111" transform="matrix(0.57656036441 -0.50789420443 0.66419095923 0.6785220456 25.803007973 60.431493727)" fill="#000000" fill-rule="evenodd" stroke="#000000" stroke-width="1.2408012" stroke-linecap="square" stroke-linejoin="bevel" d="M29.2262 0.18L29.3462 2.7L3.60623 11.22L0 19.0182L6.79627 24.1054L13.8062 10.5L33.3662 2.7L33.1262 0L29.1062 0.06Z"/>
  </g>
  <g id="group3" transform="matrix(0.93289757701 0 0 0.88598385813 0.99320352671 26.085055314)" fill="none">
   <path id="shape013" transform="matrix(1.7045935073 0.065411351545 0.038281670593 2.3500029015 8.4643272619 5.6843418861e-14)" fill="#000000" fill-rule="evenodd" stroke="#000000" stroke-width="1.2408012" stroke-linecap="square" stroke-linejoin="bevel" d="M0 10.8L2.76 0L23.28 0.48L70.44 16.68L48.48 16.32L37.8 26.4Z"/>
   <path id="shape112" transform="matrix(1.7045935073 0.065411351545 0.038281670593 2.3500029015 12.497548046 34.255482805)" fill="#000000" fill-rule="evenodd" stroke="#000000" stroke-width="1.2408012" stroke-linecap="square" stroke-linejoin="bevel" d="M0 0L0.111434 3.12L7.35461 6.36L7.24318 2.88Z"/>
   <path id="shape212" transform="matrix(1.7045935073 0.065411351545 0.038281670593 2.3500029015 29.036210864 45.599445499)" fill="#000000" fill-rule="evenodd" stroke="#000000" stroke-width="1.2408012" stroke-linecap="square" stroke-linejoin="bevel" d="M0 0L0 3.84L25.68 14.64L25.68 10.68Z"/>
   <path id="shape312" transform="matrix(1.7045935073 0.065411351545 0.038281670593 2.3500029015 76.073806143 46.840798156)" fill="#000000" fill-rule="evenodd" stroke="#000000" stroke-width="1.2408012" stroke-linecap="square" stroke-linejoin="bevel" d="M0 10.68L0 16.68L17.16 16.44L23.4 7.44L23.52 0.24L11.16 0L8.04 3.12L8.28 3.96L19.32 3.96L15.6 12.84L4.56 12.48L8.16 3Z"/>
   <path id="shape412" transform="matrix(1.7045935073 0.065411351545 0.038281670593 2.3500029015 116.7932823 49.248822376)" fill="#000000" fill-rule="evenodd" stroke="#000000" stroke-width="1.2408012" stroke-linecap="square" stroke-linejoin="bevel" d="M10.92 0.48L3.12 10.56L0 10.68L2.4 7.08L2.4 0Z"/>
   <path id="shape512" transform="matrix(1.7045935073 0.065411351545 0.038281670593 2.3500029015 42.998192077 68.244295406)" fill="#000000" fill-rule="evenodd" stroke="#000000" stroke-width="1.2408012" stroke-linecap="square" stroke-linejoin="bevel" d="M0.0848528 0L6.44881 2.54558L4.20021 3.90323L0 0Z"/>
   <path id="shape612" transform="matrix(1.7045935073 0.065411351545 0.038281670593 2.3500029015 46.144303833 76.435851577)" fill="#000000" fill-rule="evenodd" stroke="#000000" stroke-width="1.2408012" stroke-linecap="square" stroke-linejoin="bevel" d="M12.96 3.41373L0 3.17373L0.0558463 2.46073L4.04393 1.99404L6.67437 0Z"/>
   <path id="shape712" transform="matrix(1.7045935073 0.065411351545 0.038281670593 2.3500029015 14.614852758 79.51049109)" fill="#000000" fill-rule="evenodd" stroke="#000000" stroke-width="1.2408012" stroke-linecap="square" stroke-linejoin="bevel" d="M10.7099 1.76512L11.7299 4.76512L1.82986 7.58512L0 0Z"/>
   <path id="shape812" transform="matrix(1.7045935073 0.065411351545 0.038281670593 2.3500029015 -1.7053025658e-13 70.112208372)" fill="#000000" fill-rule="evenodd" stroke="#000000" stroke-width="1.2408012" stroke-linecap="square" stroke-linejoin="bevel" d="M27.5992 7.20809L27.4792 9.12809L8.63916 14.0481L6.25973 2.96562L0.783632 0L0 20.1325L7.04146 23.3895L8.57916 16.8681L34.1992 8.52809L34.0792 6.96809Z"/>
   <path id="shape912" transform="matrix(1.7045935073 0.065411351545 0.038281670593 2.3500029015 16.854633583 88.391995099)" fill="#000000" fill-rule="evenodd" stroke="#000000" stroke-width="1.2408012" stroke-linecap="square" stroke-linejoin="bevel" d="M26.7 0.18L26.82 2.7L1.08 11.22L0 16.44L9.48353 13.6988L11.28 10.5L30.84 2.7L30.6 0L26.58 0.06Z"/>
  </g>
  <path id="shape0121" transform="matrix(1.9393805432 0.76896518194 -0.72607309442 2.0539477013 614.88553565 538.04489664)" fill="#000000" fill-rule="evenodd" stroke="#000000" stroke-width="0.3432001536" stroke-linecap="square" stroke-linejoin="bevel" d="M5.06235 44.6302L20.1061 30.1188C26.6534 26.0468 37.582 17.0426 37.7116 16.6417C37.6417 16.7182 56.2975 8.90801 61.9499 5.39248C62.1834 5.28333 55.7164 5.00471 53.1899 6.67903C54.1908 5.35209 53.7523 2.00095 54.304 0C52.6962 3.01311 50.4886 6.30317 48.4443 8.22516C46.145 8.39067 48.2962 6.41417 48.614 5.17046L44.7846 9.59175L46.0685 3.81281C44.8229 6.36157 44.1726 9.50552 41.9046 11.0317C42.3631 9.62026 41.893 8.39447 41.2318 7.20692C41.1447 11.2456 39.6777 11.4897 38.7846 13.3117C39.482 11.3051 39.6537 9.12873 39.8742 7.03722C36.8415 12.807 35.3499 14.289 33.1831 16.1623C31.7355 15.6926 31.1698 14.4921 33.3405 12.2132C28.9168 13.5114 31.6843 17.1728 30.7585 18.8824C30.6824 17.89 31.2364 16.3381 26.768 15.4837C29.0902 16.3957 28.84 19.5357 28.1358 20.5891L24.9187 19.2564C26.357 21.1854 26.943 23.3568 25.2343 23.4875L20.8444 23.8625C20.4524 23.3089 17.0445 24.3552 20.6275 20.8629C12.7521 23.0989 18.3196 27.1447 18.498 28.7276C18.1598 26.7411 15.1038 27.8195 13.2157 26.7186C16.3737 29.784 16.8767 29.8535 15.815 31.7254C14.6604 30.7517 12.2995 30.5872 9.00278 30.4704C13.8257 31.5447 12.9293 31.8248 11.4032 35.914C9.44066 35.6211 8.06019 35.1333 7.53168 32.8332C7.59216 39.8273 8.53899 36.3772 8.80001 38.157C8.21307 36.2336 4.64297 38.5455 3.39787 37.2802C7.89179 39.3078 6.34807 39.3054 5.34185 41.9887C3.35172 42.2743 1.7107 46.0961 0 39.8207C0.494939 45.1568 0.912068 45.8452 2.30021 46.9328Z"/>
  <path id="shape0112" transform="matrix(2.0701760004 -0.055538333081 0.052440441731 2.1924699568 504.58520154 619.52386748)" fill="#000000" fill-rule="evenodd" stroke="#000000" stroke-width="0.3432001536" stroke-linecap="square" stroke-linejoin="bevel" d="M5.93283 20.6242L33.7882 9.31532C35.1404 7.54901 37.2199 2.75987 38.1463 0C36.0917 4.96799 33.279 6.56662 31.6158 7.75953L30.9248 3.63627C30.6426 7.57274 29.4351 8.86552 28.0448 9.63627C28.86 8.49462 29.4655 6.76607 29.4848 3.39627C28.0815 8.07366 24.6923 10.5957 22.4517 12.1719C20.9784 12.353 20.0402 11.3683 22.9608 9.03233C19.2782 9.68851 19.7129 11.9459 18.6333 13.6144C18.9199 11.6223 16.3354 11.1414 13.6448 10.7163C15.7175 11.5439 17.4217 12.8179 16.0448 14.6163C15.5743 13.2267 13.4696 12.8767 11.7043 12.7848C13.962 14.9078 13.004 15.8879 12.27 16.5848L8.90358 18.7647C5.56399 19.3542 5.27338 17.2645 9.74487 15.5763C5.41213 15.125 -0.295265 20.2264 0.0118905 24.6679Z"/>
  <path id="shape04" transform="matrix(-1.8859708725 -0.90579829049 -0.85527369233 1.9973829683 526.76839147 619.53149159)" fill="#000000" fill-rule="evenodd" stroke="#000000" stroke-width="0.3432001536" stroke-linecap="square" stroke-linejoin="bevel" d="M47.1023 6.53311C47.7795 4.12207 44.2381 3.19642 45.1898 0C43.4157 7.91126 42.8369 3.32713 40.4574 5.49613C40.3323 3.38731 38.9291 2.72578 38.5324 1.13527C38.7031 4.3862 37.6037 4.67203 35.6615 6.48351C36.7407 4.05279 35.2363 3.67515 35.0993 1.24442C35.2299 8.3803 30.639 7.27769 26.7266 10.2056C25.8395 9.56508 25.5791 9.98894 29.1159 6.81701C24.1507 7.21613 24.735 10.4651 23.3844 12.7204C23.497 9.3333 19.5582 9.81012 16.8505 9.11276C19.2949 9.72196 21.2519 10.7535 20.374 14.2432C19.4828 12.4772 18.1194 11.8369 16.6212 11.5179C17.3955 12.787 17.7541 14.1987 16.8297 15.4679L10.3474 18.7211C10.0109 18.2589 10.7471 15.5286 12.5281 13.9124C8.91486 15.5281 5.35503 17.5681 6.5363 21.6045C5.72682 19.2917 3.08888 21.2227 0.784737 20.0503C2.68579 22.2778 1.98691 23.2425 0 25.1831Z"/>
  <path id="shape11" transform="matrix(2.0708405284 0 0 2.1931736392 415.69778553 433.58597968)" fill="#000000" fill-rule="evenodd" stroke="#000000" stroke-width="1.2" stroke-linecap="square" stroke-linejoin="bevel" d="M70.9199 40.32L59.64 48.2401L56.7599 57.6L56.04 65.0401L40.9867 65.4059L42.8534 56.2418L44.2799 43.44C38.1478 40.0502 33.2546 40.4677 28.7677 50.6414L28.92 60.7201L27 56.4001L19.8 52.8001L11.6275 56.2417L6.59988 50.64C4.08652 46.7278 0.0891008 29.5168 0 29.5201C0.0930688 29.524 0.651615 22.6216 0.600001 22.5601L1.08001 20.8801C1.09907 20.6079 1.51345 10.8262 3 12.9601C3.2 25.9395 7.71987 20.8578 14.0399 19.44L16.1999 9.12L37.0799 4.8L39.5999 23.04L47.5199 0C51.606 5.27526 61.9195 -2.04406 61.3512 16.1912C63.8555 19.4243 64.7868 22.292 67.2911 25.5251L75.0975 6.17865L98.9999 7.56001L108 12.6L108 24.84L164.023 25.1857L159.96 37.2001L149.4 49.2001L135.24 58.0801L120.6 61.9201L115.8 57.1201L95.1226 64.2179L87.4859 63.1996L82.7341 50.8111Z"/>
 </g>
</svg>
