<?xml version="1.0" standalone="no"?>
<!DOCTYPE svg PUBLIC "-//W3C//DTD SVG 20010904//EN" "http://www.w3.org/TR/2001/REC-SVG-20010904/DTD/svg10.dtd">
<!-- Created using Krita: http://krita.org -->
<svg xmlns="http://www.w3.org/2000/svg" 
    xmlns:xlink="http://www.w3.org/1999/xlink"
    xmlns:krita="http://krita.org/namespaces/svg/krita"
    xmlns:sodipodi="http://sodipodi.sourceforge.net/DTD/sodipodi-0.dtd"
    width="844.32pt"
    height="764.4pt"
    viewBox="0 0 844.32 764.4">
<defs/>
<rect id="shape03" transform="matrix(2.0708405133 0 0 2.0909208285 7.113834086 7.1036514003)" fill="none" stroke="#000000" stroke-width="6.72" stroke-linecap="square" stroke-linejoin="bevel" width="400.84802595" height="358.78579761"/><g id="group0" transform="matrix(0.99999994517 0 0 1.0000000394 38.444435254 122.61068014)" fill="none">
  <path id="path3931" transform="matrix(-0.58414587627 0 0 0.75267633633 361.76448461 -7.5837620592e-06)" fill="none" stroke="#000000" stroke-width="9.6" stroke-linecap="square" stroke-linejoin="bevel" d="M41.5923 273.783C40.9907 275.019 71.7005 261.566 77.7519 265.741C83.8039 269.915 110.308 262.79 76.4193 310.496C110.913 294.991 127.805 264.704 140.513 266.493C135.067 278.42 130.938 305.585 116.147 318.977C116.147 318.977 175.136 284.072 181.188 284.669C179.372 290.035 156.088 323.151 156.088 323.151L174.614 319.743L177.872 330.493C186.327 343.572 197.714 384.013 197.292 383.576C233.147 367.08 245.854 350.352 247.703 348.085L264.413 335.077L272.885 335.674L304.445 288.495L300.117 326.729L312.251 303.163L329.918 329.15L340.189 289.452L352.515 310.496L365.475 339.252L376.368 326.729L390.724 308.583C392.128 307.945 403.338 306.955 419.778 324.482L421.908 326.931L425.992 323.151L434.464 317.188L427.701 296.148L451.12 281.799L470.169 315.995L479.851 324.344L487.113 304.069L491.349 301.684L484.4 266.493L516.161 298.702L523.423 304.665L525.239 293.932L533.106 293.335L547.63 297.509L563.364 308.839L578.033 319.238L551.261 275.446L542.33 255.014L581.011 273.084C631.443 233.015 632.549 80.2397 581.436 29.7203C404.687 -16.3363 173.642 -7.91316 51.7679 48.3917L23.4188 92.3947L49.3028 131.615L3.69771 157.443L17.256 187.097L0 218.664L32.0468 245.449Z"/>
  <path id="shape01" transform="matrix(2.0708403644 0 0 2.193173487 217.44255842 240.93862095)" fill="#000000" fill-rule="evenodd" stroke="#000000" stroke-width="2.88" stroke-linecap="square" stroke-linejoin="bevel" d="M65.88 50.2213C38.447 32.5322 6.36787 31.0214 22.0636 0L12.6 20.3413L0 9.90133C8.97192 25.9789 45.2378 39.7844 65.88 50.2213Z"/>
 </g><path id="shape0" transform="matrix(0.99999999133 0 0 0.99999996806 81.11159934 215.83039295)" fill="#000000" fill-rule="evenodd" d="M10.548 9.54C9.324 10.548 8.712 11.988 8.712 13.86C8.712 15.732 9.324 17.178 10.548 18.198C11.772 19.218 13.308 19.728 15.156 19.728C16.764 19.728 18.108 19.452 19.188 18.9C20.268 18.348 21.312 17.592 22.32 16.632L22.32 24.768C21.168 25.56 20.01 26.16 18.846 26.568C17.682 26.976 16.26 27.18 14.58 27.18C10.188 27.18 6.66 25.968 3.996 23.544C1.332 21.12 0 17.892 0 13.86C0 9.828 1.332 6.6 3.996 4.176C6.66 1.752 10.188 0.54 14.58 0.54C16.26 0.54 17.682 0.744 18.846 1.152C20.01 1.56 21.168 2.16 22.32 2.952L22.32 11.088C21.312 10.128 20.268 9.372 19.188 8.82C18.108 8.268 16.764 7.992 15.156 7.992C13.308 7.992 11.772 8.508 10.548 9.54M25.5469 13.86C25.5469 9.9 26.8849 6.69 29.5609 4.23C32.2369 1.77 35.5789 0.54 39.5869 0.54C43.6669 0.54 47.0269 1.764 49.6669 4.212C52.3069 6.66 53.6269 9.876 53.6269 13.86C53.6269 17.892 52.3189 21.18 49.7029 23.724C47.0869 26.268 43.7149 27.54 39.5869 27.54C35.4589 27.54 32.0869 26.268 29.4709 23.724C26.8549 21.18 25.5469 17.892 25.5469 13.86M35.4469 9.36C34.4389 10.488 33.9349 11.988 33.9349 13.86C33.9349 15.732 34.4389 17.232 35.4469 18.36C36.4549 19.488 37.8349 20.052 39.5869 20.052C41.3389 20.052 42.7189 19.488 43.7269 18.36C44.7349 17.232 45.2389 15.732 45.2389 13.86C45.2389 11.964 44.7529 10.458 43.7809 9.342C42.8089 8.226 41.4109 7.668 39.5869 7.668C37.8349 7.668 36.4549 8.232 35.4469 9.36M73.6013 1.26L81.1612 1.26L81.1612 27.72L64.7812 15.048L64.7812 26.46L57.2213 26.46L57.2213 0L73.6013 12.672L73.6013 1.26M90.078 16.884C91.038 18.276 91.956 19.272 92.832 19.872C93.708 20.472 94.734 20.772 95.91 20.772C97.446 20.772 98.214 20.28 98.214 19.296C98.214 19.056 98.16 18.84 98.052 18.648C97.944 18.456 97.806 18.294 97.638 18.162C97.47 18.03 97.224 17.886 96.9 17.73C96.576 17.574 96.27 17.448 95.982 17.352C95.694 17.256 95.298 17.112 94.794 16.92C94.29 16.728 93.846 16.548 93.462 16.38C92.766 16.092 92.196 15.84 91.752 15.624C91.308 15.408 90.702 15.054 89.934 14.562C89.166 14.07 88.554 13.554 88.098 13.014C87.642 12.474 87.234 11.772 86.874 10.908C86.514 10.044 86.334 9.108 86.334 8.1C86.334 5.82 87.234 3.99 89.034 2.61C90.834 1.23 93.21 0.54 96.162 0.54C98.994 0.54 101.232 1.092 102.876 2.196C104.52 3.3 105.642 4.62 106.242 6.156L100.374 9.396C99.39 7.836 98.118 7.056 96.558 7.056C95.91 7.056 95.388 7.17 94.992 7.398C94.596 7.626 94.398 7.932 94.398 8.316C94.398 8.556 94.494 8.784 94.686 9C94.878 9.216 95.19 9.42 95.622 9.612C96.054 9.804 96.456 9.972 96.828 10.116C97.2 10.26 97.746 10.446 98.466 10.674C99.186 10.902 99.75 11.088 100.158 11.232C104.454 12.72 106.602 15.396 106.602 19.26C106.602 21.996 105.63 24.06 103.686 25.452C101.742 26.844 99.102 27.54 95.766 27.54C93.294 27.54 91.038 26.922 88.998 25.686C86.958 24.45 85.542 22.812 84.75 20.772L90.078 16.884M117.937 16.56L117.937 20.16L128.557 20.16L128.557 26.46L110.377 26.46L110.377 1.26L128.557 1.26L128.557 7.56L117.937 7.56L117.937 10.44L127.837 10.44L127.837 16.56L117.937 16.56M149.617 1.26L157.177 1.26L157.177 27.72L140.797 15.048L140.797 26.46L133.237 26.46L133.237 0L149.617 12.672L149.617 1.26M159.686 8.28L159.686 1.26L182.006 1.26L182.006 8.28L174.806 8.28L174.806 26.46L166.886 26.46L166.886 8.28L159.686 8.28M192.795 8.28L192.795 1.26L215.115 1.26L215.115 8.28L207.915 8.28L207.915 26.46L199.995 26.46L199.995 8.28L192.795 8.28M216.188 13.86C216.188 9.9 217.526 6.69 220.201 4.23C222.878 1.77 226.219 0.54 230.228 0.54C234.307 0.54 237.668 1.764 240.307 4.212C242.948 6.66 244.267 9.876 244.267 13.86C244.267 17.892 242.96 21.18 240.343 23.724C237.728 26.268 234.355 27.54 230.228 27.54C226.099 27.54 222.728 26.268 220.111 23.724C217.496 21.18 216.188 17.892 216.188 13.86M226.087 9.36C225.08 10.488 224.575 11.988 224.575 13.86C224.575 15.732 225.08 17.232 226.087 18.36C227.095 19.488 228.475 20.052 230.228 20.052C231.979 20.052 233.36 19.488 234.367 18.36C235.376 17.232 235.879 15.732 235.879 13.86C235.879 11.964 235.394 10.458 234.421 9.342C233.449 8.226 232.051 7.668 230.228 7.668C228.475 7.668 227.095 8.232 226.087 9.36"/><path id="shape1" transform="matrix(0.99999999133 0 0 0.99999996806 53.724399534 265.29239137)" fill="#000000" fill-rule="evenodd" d="M0 8.28L0 1.26L22.32 1.26L22.32 8.28L15.12 8.28L15.12 26.46L7.2 26.46L7.2 8.28L0 8.28M24.8325 1.26L32.7525 1.26L32.7525 9.9L41.7525 9.9L41.7525 1.26L49.6725 1.26L49.6725 26.46L41.7525 26.46L41.7525 16.92L32.7525 16.92L32.7525 26.46L24.8325 26.46L24.8325 1.26M54.7075 1.26L62.8075 1.26L62.8075 26.46L54.7075 26.46L54.7075 1.26M71.7205 16.884C72.6805 18.276 73.5985 19.272 74.4745 19.872C75.3505 20.472 76.3765 20.772 77.5525 20.772C79.0885 20.772 79.8565 20.28 79.8565 19.296C79.8565 19.056 79.8025 18.84 79.6945 18.648C79.5865 18.456 79.4485 18.294 79.2805 18.162C79.1125 18.03 78.8665 17.886 78.5425 17.73C78.2185 17.574 77.9125 17.448 77.6245 17.352C77.3365 17.256 76.9405 17.112 76.4365 16.92C75.9325 16.728 75.4885 16.548 75.1045 16.38C74.4085 16.092 73.8385 15.84 73.3945 15.624C72.9505 15.408 72.3445 15.054 71.5765 14.562C70.8085 14.07 70.1965 13.554 69.7405 13.014C69.2845 12.474 68.8765 11.772 68.5165 10.908C68.1565 10.044 67.9765 9.108 67.9765 8.1C67.9765 5.82 68.8765 3.99 70.6765 2.61C72.4765 1.23 74.8525 0.54 77.8045 0.54C80.6365 0.54 82.8745 1.092 84.5185 2.196C86.1625 3.3 87.2845 4.62 87.8845 6.156L82.0165 9.396C81.0325 7.836 79.7605 7.056 78.2005 7.056C77.5525 7.056 77.0305 7.17 76.6345 7.398C76.2385 7.626 76.0405 7.932 76.0405 8.316C76.0405 8.556 76.1365 8.784 76.3285 9C76.5205 9.216 76.8325 9.42 77.2645 9.612C77.6965 9.804 78.0985 9.972 78.4705 10.116C78.8425 10.26 79.3885 10.446 80.1085 10.674C80.8285 10.902 81.3925 11.088 81.8005 11.232C86.0965 12.72 88.2445 15.396 88.2445 19.26C88.2445 21.996 87.2725 24.06 85.3285 25.452C83.3845 26.844 80.7445 27.54 77.4085 27.54C74.9365 27.54 72.6805 26.922 70.6405 25.686C68.6005 24.45 67.1845 22.812 66.3925 20.772L71.7205 16.884M110.737 18.54L110.737 26.46L102.817 26.46L102.817 1.26L113.437 1.26C116.989 1.26 119.635 2.04 121.375 3.6C123.115 5.16 123.985 7.26 123.985 9.9C123.985 13.524 122.473 16.032 119.449 17.424L125.497 26.46L116.317 26.46L111.817 18.54L110.737 18.54M110.737 12.6L112.717 12.6C114.709 12.6 115.705 11.82 115.705 10.26C115.705 8.7 114.709 7.92 112.717 7.92L110.737 7.92L110.737 12.6M135.564 16.56L135.564 20.16L146.184 20.16L146.184 26.46L128.004 26.46L128.004 1.26L146.184 1.26L146.184 7.56L135.564 7.56L135.564 10.44L145.464 10.44L145.464 16.56L135.564 16.56M159.972 9.54C158.748 10.548 158.136 11.988 158.136 13.86C158.136 15.732 158.748 17.178 159.972 18.198C161.196 19.218 162.732 19.728 164.58 19.728C166.188 19.728 167.532 19.452 168.612 18.9C169.692 18.348 170.736 17.592 171.744 16.632L171.744 24.768C170.592 25.56 169.434 26.16 168.27 26.568C167.106 26.976 165.684 27.18 164.004 27.18C159.612 27.18 156.084 25.968 153.42 23.544C150.756 21.12 149.424 17.892 149.424 13.86C149.424 9.828 150.756 6.6 153.42 4.176C156.084 1.752 159.612 0.54 164.004 0.54C165.684 0.54 167.106 0.744 168.27 1.152C169.434 1.56 170.592 2.16 171.744 2.952L171.744 11.088C170.736 10.128 169.692 9.372 168.612 8.82C167.532 8.268 166.188 7.992 164.58 7.992C162.732 7.992 161.196 8.508 159.972 9.54M174.971 13.86C174.971 9.9 176.309 6.69 178.985 4.23C181.661 1.77 185.003 0.54 189.011 0.54C193.091 0.54 196.451 1.764 199.091 4.212C201.731 6.66 203.051 9.876 203.051 13.86C203.051 17.892 201.743 21.18 199.127 23.724C196.511 26.268 193.139 27.54 189.011 27.54C184.883 27.54 181.511 26.268 178.895 23.724C176.279 21.18 174.971 17.892 174.971 13.86M184.871 9.36C183.863 10.488 183.359 11.988 183.359 13.86C183.359 15.732 183.863 17.232 184.871 18.36C185.879 19.488 187.259 20.052 189.011 20.052C190.763 20.052 192.143 19.488 193.151 18.36C194.159 17.232 194.663 15.732 194.663 13.86C194.663 11.964 194.177 10.458 193.205 9.342C192.233 8.226 190.835 7.668 189.011 7.668C187.259 7.668 185.879 8.232 184.871 9.36M214.565 18.54L214.565 26.46L206.645 26.46L206.645 1.26L217.265 1.26C220.817 1.26 223.463 2.04 225.203 3.6C226.943 5.16 227.813 7.26 227.813 9.9C227.813 13.524 226.301 16.032 223.277 17.424L229.325 26.46L220.145 26.46L215.645 18.54L214.565 18.54M214.565 12.6L216.545 12.6C218.537 12.6 219.533 11.82 219.533 10.26C219.533 8.7 218.537 7.92 216.545 7.92L214.565 7.92L214.565 12.6M240.077 19.62L241.373 19.62C242.02 19.62 242.596 19.584 243.101 19.512C243.605 19.44 244.144 19.29 244.72 19.062C245.297 18.834 245.776 18.522 246.161 18.126C246.544 17.73 246.863 17.166 247.114 16.434C247.367 15.702 247.493 14.844 247.493 13.86C247.493 12.876 247.367 12.018 247.114 11.286C246.863 10.554 246.544 9.99 246.161 9.594C245.776 9.198 245.297 8.886 244.72 8.658C244.144 8.43 243.605 8.28 243.101 8.208C242.596 8.136 242.02 8.1 241.373 8.1L240.077 8.1L240.077 19.62M241.732 26.46L231.833 26.46L231.833 1.26L241.732 1.26C246.125 1.26 249.563 2.376 252.047 4.608C254.53 6.84 255.773 9.924 255.773 13.86C255.773 17.796 254.53 20.88 252.047 23.112C249.563 25.344 246.125 26.46 241.732 26.46M259.364 1.26L267.464 1.26L267.464 26.46L259.364 26.46L259.364 1.26M288.869 1.26L296.429 1.26L296.429 27.72L280.049 15.048L280.049 26.46L272.489 26.46L272.489 0L288.869 12.672L288.869 1.26M314.418 17.82L314.418 12.06L327.81 12.06C328.169 16.476 327.144 20.16 324.731 23.112C322.32 26.064 318.882 27.54 314.418 27.54C310.169 27.54 306.707 26.286 304.031 23.778C301.356 21.27 300.017 17.964 300.017 13.86C300.017 9.804 301.404 6.57 304.175 4.158C306.947 1.746 310.481 0.54 314.777 0.54C319.673 0.54 323.645 2.652 326.693 6.876L319.313 10.188C318.233 8.196 316.721 7.2 314.777 7.2C312.906 7.2 311.358 7.782 310.134 8.946C308.909 10.11 308.298 11.748 308.298 13.86C308.298 16.044 308.885 17.76 310.062 19.008C311.238 20.256 312.81 20.88 314.777 20.88C317.418 20.88 319.193 19.86 320.106 17.82L314.418 17.82"/><path id="shape2" transform="matrix(0.99999999133 0 0 0.99999996806 113.61199914 166.11999453)" fill="#000000" fill-rule="evenodd" d="M0 1.26L8.1 1.26L8.1 26.46L0 26.46L0 1.26M32.1659 19.62L33.4619 19.62C34.1099 19.62 34.6859 19.584 35.1899 19.512C35.6939 19.44 36.2339 19.29 36.8099 19.062C37.3859 18.834 37.8659 18.522 38.2499 18.126C38.6339 17.73 38.9519 17.166 39.2039 16.434C39.4559 15.702 39.5819 14.844 39.5819 13.86C39.5819 12.876 39.4559 12.018 39.2039 11.286C38.9519 10.554 38.6339 9.99 38.2499 9.594C37.8659 9.198 37.3859 8.886 36.8099 8.658C36.2339 8.43 35.6939 8.28 35.1899 8.208C34.6859 8.136 34.1099 8.1 33.4619 8.1L32.1659 8.1L32.1659 19.62M33.8219 26.46L23.9219 26.46L23.9219 1.26L33.8219 1.26C38.2139 1.26 41.6519 2.376 44.1359 4.608C46.6199 6.84 47.8619 9.924 47.8619 13.86C47.8619 17.796 46.6199 20.88 44.1359 23.112C41.6519 25.344 38.2139 26.46 33.8219 26.46M50.0131 13.86C50.0131 9.9 51.3511 6.69 54.0271 4.23C56.7031 1.77 60.0451 0.54 64.0531 0.54C68.1331 0.54 71.4931 1.764 74.1331 4.212C76.7731 6.66 78.0931 9.876 78.0931 13.86C78.0931 17.892 76.7851 21.18 74.1691 23.724C71.5531 26.268 68.1811 27.54 64.0531 27.54C59.9251 27.54 56.5531 26.268 53.9371 23.724C51.3211 21.18 50.0131 17.892 50.0131 13.86M59.9131 9.36C58.9051 10.488 58.4011 11.988 58.4011 13.86C58.4011 15.732 58.9051 17.232 59.9131 18.36C60.9211 19.488 62.3011 20.052 64.0531 20.052C65.8051 20.052 67.1851 19.488 68.1931 18.36C69.2011 17.232 69.7051 15.732 69.7051 13.86C69.7051 11.964 69.2191 10.458 68.2471 9.342C67.2751 8.226 65.8771 7.668 64.0531 7.668C62.3011 7.668 60.9211 8.232 59.9131 9.36M108.864 1.26L116.424 1.26L116.424 27.72L100.044 15.048L100.044 26.46L92.4844 26.46L92.4844 0L108.864 12.672L108.864 1.26M120.013 13.86C120.013 9.9 121.351 6.69 124.027 4.23C126.703 1.77 130.045 0.54 134.053 0.54C138.133 0.54 141.493 1.764 144.133 4.212C146.773 6.66 148.093 9.876 148.093 13.86C148.093 17.892 146.785 21.18 144.169 23.724C141.553 26.268 138.181 27.54 134.053 27.54C129.925 27.54 126.553 26.268 123.937 23.724C121.321 21.18 120.013 17.892 120.013 13.86M129.913 9.36C128.905 10.488 128.401 11.988 128.401 13.86C128.401 15.732 128.905 17.232 129.913 18.36C130.921 19.488 132.301 20.052 134.053 20.052C135.805 20.052 137.185 19.488 138.193 18.36C139.201 17.232 139.705 15.732 139.705 13.86C139.705 11.964 139.219 10.458 138.247 9.342C137.275 8.226 135.877 7.668 134.053 7.668C132.301 7.668 130.921 8.232 129.913 9.36M149.168 8.28L149.168 1.26L171.487 1.26L171.487 8.28L164.288 8.28L164.288 26.46L156.367 26.46L156.367 8.28L149.168 8.28"/><g id="group01" transform="matrix(1.0000002851 0 0 1.0000002639 -264.69882194 385.49377789)" fill="none">
  <path id="shape0111" transform="matrix(0.7385778397 0.20024685575 -0.21124655271 0.77914842641 16.09446116 -5.6843418861e-14)" fill="#000000" fill-rule="evenodd" stroke="#000000" stroke-width="1.2408012" stroke-linecap="square" stroke-linejoin="bevel" d="M0 10.8L2.76 0L23.28 0.48L70.44 16.68L48.48 16.32L37.8 26.4Z"/>
  <path id="shape11" transform="matrix(0.7385778397 0.20024685575 -0.21124655271 0.77914842641 14.533859938 11.721739255)" fill="#000000" fill-rule="evenodd" stroke="#000000" stroke-width="1.2408012" stroke-linecap="square" stroke-linejoin="bevel" d="M0 0L0.111434 3.12L7.35461 6.36L7.24318 2.88Z"/>
  <path id="shape21" transform="matrix(0.7385778397 0.20024685575 -0.21124655271 0.77914842641 20.66092319 17.197026136)" fill="#000000" fill-rule="evenodd" stroke="#000000" stroke-width="1.2408012" stroke-linecap="square" stroke-linejoin="bevel" d="M0 0L0 3.84L25.68 14.64L25.68 10.68Z"/>
  <path id="shape3" transform="matrix(0.7385778397 0.20024685575 -0.21124655271 0.77914842641 41.09637164 22.536843968)" fill="#000000" fill-rule="evenodd" stroke="#000000" stroke-width="1.2408012" stroke-linecap="square" stroke-linejoin="bevel" d="M0 10.68L0 16.68L17.16 16.44L23.4 7.44L23.52 0.24L11.16 0L8.04 3.12L8.28 3.96L19.32 3.96L15.6 12.84L4.56 12.48L8.16 3Z"/>
  <path id="shape4" transform="matrix(0.7385778397 0.20024685575 -0.21124655271 0.77914842641 58.657562469 27.599232541)" fill="#000000" fill-rule="evenodd" stroke="#000000" stroke-width="1.2408012" stroke-linecap="square" stroke-linejoin="bevel" d="M10.92 0.48L3.12 10.56L0 10.68L2.4 7.08L2.4 0Z"/>
  <path id="shape5" transform="matrix(0.7385778397 0.20024685575 -0.21124655271 0.77914842641 24.56564249 26.129768582)" fill="#000000" fill-rule="evenodd" stroke="#000000" stroke-width="1.2408012" stroke-linecap="square" stroke-linejoin="bevel" d="M0.0848528 0L6.44881 2.54558L4.20021 3.90323L0 0Z"/>
  <path id="shape6" transform="matrix(0.7385778397 0.20024685575 -0.21124655271 0.77914842641 25.145852425 29.161477037)" fill="#000000" fill-rule="evenodd" stroke="#000000" stroke-width="1.2408012" stroke-linecap="square" stroke-linejoin="bevel" d="M12.96 3.41373L0 3.17373L0.0558463 2.46073L4.04393 1.99404L6.67437 0Z"/>
  <path id="shape7" transform="matrix(0.7385778397 0.20024685575 -0.21124655271 0.77914842641 11.060024345 28.043659723)" fill="#000000" fill-rule="evenodd" stroke="#000000" stroke-width="1.2408012" stroke-linecap="square" stroke-linejoin="bevel" d="M10.32 0.36L11.34 3.36L1.44 6.18L0 0Z"/>
  <path id="shape8" transform="matrix(0.7385778397 0.20024685575 -0.21124655271 0.77914842641 3.9513301911 25.965760923)" fill="#000000" fill-rule="evenodd" stroke="#000000" stroke-width="1.2408012" stroke-linecap="square" stroke-linejoin="bevel" d="M28.3963 2.22L28.2763 4.14L9.43632 9.06L7.21632 0L0 1.86458L4.81661 18.7048L8.17632 18.12L9.37632 11.88L34.9963 3.54L34.8763 1.98Z"/>
  <path id="shape9" transform="matrix(0.7385778397 0.20024685575 -0.21124655271 0.77914842641 11.186113193 30.035076027)" fill="#000000" fill-rule="evenodd" stroke="#000000" stroke-width="1.2408012" stroke-linecap="square" stroke-linejoin="bevel" d="M26.7 0.18L26.82 2.7L1.08 11.22L0 16.44L10.62 16.02L11.28 10.5L30.84 2.7L30.6 0L26.58 0.06Z"/>
 </g><path id="shape21" transform="matrix(2.0708407066 0 0 2.193173835 490.92710709 583.35962504)" fill="#000000" fill-rule="evenodd" stroke="#000000" stroke-opacity="0" stroke-width="2.2392" stroke-linecap="square" stroke-linejoin="bevel" d="M12.12 25.32L25.32 24.48L29.16 19.92L29.88 6.24L24.36 0.24L5.52 0L2.16 3.72L0 9.36L0.72 16.8L5.04 21.12L12.36 25.2Z"/><path id="shape31" transform="matrix(2.0708407066 0 0 2.193173835 481.41329811 533.5641441)" fill="none" stroke="#000000" stroke-width="2.4" stroke-linecap="square" stroke-linejoin="bevel" d="M6.99418 39.1448L1.11418 28.7048L0.651761 18.1491C0.0727708 15.6649 -0.181926 12.37 0.142502 7.62729C3.48641 2.96846 4.91232 -2.07471 15.4301 0.882249C15.2474 9.96971 14.6555 14.9654 13.834 17.6647L12.3615 22.9009L7.60969 28.8406L6.63418 34.7048L6.93087 39.1078Z"/><path id="shape41" transform="matrix(2.0708407066 0 0 2.193173835 538.99232204 531.51279786)" fill="none" stroke="#000000" stroke-width="2.4" stroke-linecap="square" stroke-linejoin="bevel" d="M0 23.4968L1.38937 14.28L2.71514 6.86557L15.9094 0L26.3042 10.4294L31.5651 21.1208L40.0504 21.9694L59.7364 16.0298L64.5095 19.9201L38.1095 33.0001L28.2695 37.3201L22.7495 41.6401L13.8695 44.5201L1.26946 47.0401L5.09117 43.3524L6.27911 30.1153L0.169706 23.4968Z"/><path id="shape51" transform="matrix(2.0708407066 0 0 2.193173835 659.77138136 253.59400743)" fill="none" stroke="#000000" stroke-width="1.2" stroke-linecap="square" stroke-linejoin="bevel" d="M34.8447 54.2216L38.5858 32.76L36.0658 0L23.1058 5.4L10.5058 16.2C5.99888 22.2977 6.09652 25.3702 3.30584 32.04C-0.266969 38.8283 -0.41839 41.5447 0.425838 46.44C0.971807 53.1301 3.80475 62.5453 3.78858 62.6486C16.3853 37.5568 22.4287 51.8678 35.0144 54.1633L31.6256 54.5999L34.9858 54.12Z"/><path id="shape61" transform="matrix(2.0708407066 0 0 2.193173835 430.54139207 252.80446482)" fill="none" stroke="#000000" stroke-width="1.2" stroke-linecap="square" stroke-linejoin="bevel" d="M4.56 55.68L8.88 48.96L6 37.68C4.53497 31.9539 3.36718 28.7131 3.36 13.92L0 0L9.6 12L25.92 21.36L32.16 39.36L32.64 55.68C32.2781 51.6778 30.7769 47.7895 21.4841 44.6804C6.50218 55.5615 5.17035 60.5925 2.4 66.24Z"/><path id="shape71" transform="matrix(2.0708407066 0 0 2.193173835 207.82635899 448.9343839)" fill="#000000" fill-rule="evenodd" stroke="#000000" stroke-width="1.2" stroke-linecap="square" stroke-linejoin="bevel" d="M71.0681 70.6526L67.429 53.0034C66.5574 46.9685 68.3717 43.8569 68.0276 40.8663C66.1489 35.6215 73.2663 26.4911 75.5749 19.5714C71.7767 19.1877 65.5477 9.35134 65.3926 23.1352C66.7861 30.596 64.8137 34.6909 63.1481 39.0926L56.5679 40.9543L51.2681 27.5726C48.7618 23.2008 48.7753 11.7916 50.7979 0.0552535C44.4891 -0.356499 40.0236 1.3823 41.8035 10.4073C44.2575 19.9483 51.1562 33.2502 48.3881 38.3726L39.7481 34.7726C34.8591 28.4566 34.08 19.6747 31.2817 12.1044C26.5239 6.82527 22.1226 2.61572 20.9297 8.03142C23.0455 17.5561 34.3052 25.4739 36.8681 38.7326L36.0335 42.9908C18.667 37.0511 15.8646 20.8703 7.35325 21.6079C5.08962 25.18 8.36785 34.2909 11.0868 36.3723L20.76 39.5967L29.6681 44.8526L33.6281 53.4926C25.4258 59.8647 8.32423 49.9986 0.0559073 53.6822C-0.749655 60.4807 7.3425 62.2604 11.9353 63.3555C20.2929 60.4284 25.8571 58.428 31.112 60.4705C35.9244 61.539 37.7356 60.9731 41.1247 64.8828L55.5881 77.9726L64.9481 82.2926C65.0281 82.2926 67.0681 78.4126 71.0681 70.6526Z"/><path id="shape81" transform="matrix(2.0708407066 0 0 2.193173835 356.07107921 727.45648845)" fill="none" stroke="#000000" stroke-width="2.4" stroke-linecap="square" stroke-linejoin="bevel" d="M1.95163 0C1.68423 2.06647 0.154228 13.203 0 12.9825"/><path id="shape111" transform="matrix(2.0708407066 0 0 2.193173835 430.54139207 252.27810297)" fill="#000000" fill-rule="evenodd" stroke="#000000" stroke-width="1.5936" stroke-linecap="square" stroke-linejoin="bevel" d="M0 0L9.84 12.24L26.4 21.6L32.64 39.6L33.5999 55.6799L36.48 49.44L47.04 42.96L53.04 39.12L53.52 35.52L51.6 31.68L39.12 15.12L19.68 5.52Z"/><path id="shape12" transform="matrix(2.0708407066 0 0 2.193173835 617.1655564 265.43714609)" fill="#000000" fill-rule="evenodd" stroke="#000000" stroke-width="1.5936" stroke-linecap="square" stroke-linejoin="bevel" d="M44.04 0L12.24 14.28L2.28 30.48L0.48 34.92L0 39.36L2.04 43.92L7.08 50.28L18.7625 58.4366L24.12 58.56L21.4777 49.7816L20.6292 41.466L20.4595 32.3019L24.0233 25.5137L31.4904 9.56133L44.04 0.12Z"/><path id="shape13" transform="matrix(2.0708407066 0 0 2.193173835 552.0766764 356.43830989)" fill="#000000" fill-rule="evenodd" stroke="#000000" stroke-opacity="0" stroke-width="1.5936" stroke-linecap="square" stroke-linejoin="bevel" d="M84.6438 6.16726C114.358 29.586 105.844 82.2003 103.911 79.467C103.9 79.667 97.0876 89.9271 97.071 89.547C97.9132 84.2594 99.5675 84.9791 83.3711 87.1168L75.831 67.227L73.311 52.467C73.2999 52.5318 75.4476 40.9705 75.471 41.307C75.5235 41.4929 60.2093 46.2828 59.991 46.347C57.7266 50.3601 33.8648 15.0599 0.831003 40.827C-4.2332 17.7355 15.68 11.5255 11.391 9.62698C11.5276 9.69918 38.0782 19.4098 43.7447 12.0221C43.7913 12.0827 53.1661 15.677 55.2848 15.7556C64.8646 -9.4381 75.4578 2.16463 84.6438 6.16726Z"/><path id="shape14" transform="matrix(2.0708407066 0 0 2.193173835 704.38936713 532.05481303)" fill="#000000" fill-rule="evenodd" stroke="#000000" stroke-opacity="0" stroke-width="1.5936" stroke-linecap="square" stroke-linejoin="bevel" d="M19.9174 5.68514C25.4086 6.56265 21.3175 9.05983 21.784 12.3884C19.8392 7.47002 20.0433 5.18546 16.3534 8.6549C14.0189 13.3475 17.8423 11.5177 20.5961 12.5581C11.1979 14.5156 17.4137 13.483 11.6867 8.73984C15.8878 13.3785 12.9412 17.7625 12.7896 17.6493C13.921 11.273 11.42 13.1573 6.93491 11.7945C9.87724 14.5846 10.8106 16.423 9.7349 17.3099C9.55464 18.0286 9.52717 14.0055 0 16.193L3.88021 0L19.8325 5.76999Z"/><path id="shape15" transform="matrix(2.0708407066 0 0 2.193173835 542.86379186 337.02234011)" fill="none" stroke="#000000" stroke-width="1.2" stroke-linecap="square" stroke-linejoin="bevel" d="M36.36 1.2L0 0"/><path id="shape16" transform="matrix(2.0708407066 0 0 2.193173835 321.80652935 395.60265905)" fill="none" stroke="#000000" stroke-width="2.4" stroke-linecap="square" stroke-linejoin="bevel" d="M0 101.038L10.7973 139.56L25.5573 158.88L39.7172 155.21C43.8616 152.495 48.7148 131.119 48.1964 110.542C47.0956 101.1 43.7493 98.7732 38.1573 103.56C32.5653 108.347 24.4766 106.077 15.1886 94.9696C19.0837 98.9696 26.1829 107.39 33.0925 108.675C40.3919 97.5831 39.8524 96.6306 46.7973 88.8C51.6331 80.1653 53.2837 79.2068 60.4144 76.2611C52.7684 72.0793 51.0969 63.3141 50.9964 63.744C52.547 66.7954 49.1 60.3601 48.2219 50.1514L51.9299 21.1068L55.0773 0"/><path id="shape18" transform="matrix(2.0708407066 0 0 2.193173835 617.75226115 240.9991505)" fill="#000000" fill-rule="evenodd" stroke="#000000" stroke-opacity="0" stroke-width="1.2" stroke-linecap="square" stroke-linejoin="bevel" d="M54.5567 59.9828L58.2767 38.3228C57.4444 23.0523 56.8499 12.1448 56.4932 5.60029C50.825 8.34951 41.3781 12.9315 28.1524 19.3464L0.278218 44.7599C-0.533408 43.2684 0.706402 40.3857 0.532776 34.7472C1.36899 36.7088 2.03487 40.3738 3.29049 38.1413C3.45474 34.5665 4.10468 34.8737 2.23669 31.3028C3.69563 32.6041 5.93814 33.9378 4.93669 35.9228C6.44199 34.9069 3.53086 35.1932 5.41669 29.1428C5.54505 31.0394 5.66772 32.303 7.36343 31.7774C9.06407 29.5909 10.3257 25.1597 6.25669 24.5228C8.00017 24.3339 9.02573 25.2377 9.86659 26.1771C11.7132 24.7409 13.221 24.2507 10.1567 20.1428C11.3329 21.1408 13.7665 21.4014 13.8971 23.7588C14.6909 19.8979 16.2516 20.6318 20.8367 18.7628C15.3977 23.2501 20.061 20.4908 21.2567 20.7428C23.3588 18.892 27.2927 19.74 24.2067 15.9099C25.0781 15.8379 25.9804 16.2594 26.9644 17.9888C26.9844 16.6009 28.6083 15.0525 24.4188 14.0856C29.0532 14.3919 29.1043 15.6149 29.3403 16.8009C30.5513 14.9911 30.6082 12.1321 34.0921 12.3885C31.2335 13.9099 31.7254 15.0254 32.7768 15.2735C36.0921 13.0208 39.8764 9.99502 40.159 6.32153C39.8637 8.3313 40.5559 10.4398 39.2257 12.3461C40.3468 11.4155 41.8855 10.4943 41.6864 6.9155C41.8609 8.14467 42.439 9.27294 42.1955 10.6066C44.2557 10.0472 45.5419 5.7664 46.6927 3.18198L44.5714 9.37624C47.296 7.7079 47.5797 6.65487 49.1534 5.09117C48.5672 6.16515 47.4505 7.3838 48.0079 8.14587C54.8436 3.32182 52.6675 4.11361 54.7113 1.52735C53.902 3.13225 53.8876 4.55668 52.2081 6.32153C55.0649 4.82752 58.0488 3.22782 62.0935 0C61.1431 1.154 59.5592 3.07733 57.3417 5.76999C58.7672 6.06698 59.7855 6.27911 60.3964 6.40639C57.0996 6.68573 57.8748 7.83622 57.9357 9.50352C58.8069 9.26593 59.4291 9.09622 59.8025 8.9944C56.1639 11.4605 58.4601 11.6371 58.2751 13.7886C58.8266 13.4237 59.7459 12.8156 61.0328 11.9642C57.7907 16.0584 58.8866 16.3555 58.36 18.6676C58.9709 18.4385 59.9892 18.0567 61.4147 17.5221C58.7965 19.1847 58.9488 20.1834 58.36 21.7223C59.183 22.353 61.1024 24.4741 62.5602 20.6617C62.0832 21.875 62.6623 22.9744 59.2085 24.6073C59.3142 23.0919 60.4893 27.6943 63.3663 26.0074C62.0067 26.7366 59.5606 26.6717 59.7176 28.4681C59.5566 29.8758 61.313 30.9963 62.0511 28.8075C62.853 31.5122 59.7371 30.7881 60.8207 32.4138C61.6642 31.6387 65.0575 34.2044 64.2997 34.4078C64.2941 34.4026 58.3918 32.118 59.4206 37.2928C59.4752 37.2411 59.8787 41.7245 65.3179 34.8321C63.895 38.0115 61.8891 40.2762 58.5297 42.7658C60.0189 42.6975 62.3015 42.8285 63.2814 39.202C62.6942 43.3558 60.8307 43.3746 58.6994 45.269C60.8892 44.6795 62.7405 43.791 66.0816 42.4688C63.717 44.2727 59.7237 45.4657 59.0388 47.8994C61.9873 46.3229 63.7497 46.9048 66.2937 46.5418C58.1304 48.729 58.7498 48.9221 58.1903 49.0449C60.997 48.9616 62.5865 48.6491 64.4694 47.5176C61.8581 50.2616 60.1142 49.1867 57.2993 50.8693C61.3264 49.2427 65.6581 51.9097 66.1967 52.6028C59.2626 49.926 58.4384 52.505 58.4024 52.6936C65.7759 54.4889 62.7092 54.5924 66.421 56.215C60.299 52.5983 58.6 55.1864 58.4872 55.2816C60.7164 55.4736 61.6292 57.1698 63.1542 58.1666C59.3188 55.6968 57.2989 56.4437 56.4767 58.0028C58.8197 57.5947 60.4129 58.936 62.3299 59.5219C56.6618 58.9274 56.5663 60.1102 55.3053 60.8395C55.1556 60.6682 54.906 60.3826 54.5567 59.9828Z"/><path id="shape19" transform="matrix(2.0708407066 0 0 2.193173835 531.25829331 335.90846734)" fill="#000000" fill-rule="evenodd" stroke="#000000" stroke-opacity="0" stroke-width="1.2" stroke-linecap="square" stroke-linejoin="bevel" d="M19.0081 39.8808C19.0077 38.9112 29.5013 23.5287 29.3601 23.4194C34.0626 23.5226 26.0092 7.11892 38.4841 12.0278C37.7548 6.65364 42.9325 2.25483 43.0214 1.95161L4.83768 0C5.86003 0.94272 -0.0382376 48.9782 0.00107237 48.8752C-0.0896774 48.8456 5.59836 62.9373 9.844 64.4881C8.95794 43.5672 18.1021 42.3728 19.0081 39.8808Z"/><path id="shape20" transform="matrix(2.0708407066 0 0 2.193173835 428.05612912 349.91820219)" fill="#000000" fill-rule="evenodd" stroke="#000000" stroke-width="1.5936" stroke-linecap="square" stroke-linejoin="bevel" d="M2.64 46.1999C2.20611 45.4591 2.67123 34.561 12.24 36.1199C35.2458 28.0237 48.1062 42.317 49.44 46.6799C49.099 46.772 53.4679 27.3405 52.8 13.7999C13.083 19.2984 25.357 17.5257 34.5634 11.4312C33.1122 5.94217 27.4402 2.68362 22.5602 0L9.72013 6.48C4.69995 10.3899 4.55864 16.7393 3.12013 22.44L0 56.0399Z"/><path id="shape211" transform="matrix(2.0708407066 0 0 2.193173835 420.03211464 236.90500403)" fill="#000000" fill-rule="evenodd" stroke="#000000" stroke-opacity="0" stroke-width="1.5936" stroke-linecap="square" stroke-linejoin="bevel" d="M13.831 56.3423L8.90956 35.2988L8.40044 21.0435L4.66692 6.78823L24.6922 12.0491L44.3779 23.4193C48.6771 29.4721 54.1643 36.0341 58.4635 42.0869C55.2788 36.6881 59.4182 35.6213 60.2455 33.432L56.0877 35.8079C57.6532 33.6017 57.7842 31.3955 58.2939 29.1894C55.2282 35.4402 55.9372 32.0178 54.3059 34.4502C53.6836 31.6218 54.6735 30.9995 54.8998 29.3591C53.7967 29.9248 52.8633 30.6602 52.8633 32.5835C52.5805 29.9531 53.825 27.662 51.7602 25.1164C51.9016 29.6419 51.4491 27.3792 50.5723 28.5954C47.258 24.4072 49.0825 23.4082 51.336 21.892L46.9236 24.0982C47.574 22.0617 48.9878 22.5708 48.8749 17.9888C47.6305 24.0416 46.2164 20.2515 44.8872 21.3829C42.0586 16.32 42.5393 16.1786 48.8749 13.3219C43.9915 14.747 38.9083 13.0579 43.1901 19.4313L38.5232 13.0673C38.3252 14.0007 43.0487 20.0253 38.9475 18.4979C36.6037 18.2916 37.6582 15.7065 37.3352 14.0856L36.5716 17.1403C36.3237 13.8632 33.2661 11.9078 30.8016 10.1823C31.4238 12.0491 35.8645 14.934 32.6684 15.7825C29.2883 14.4099 28.1289 11.5549 27.9166 6.78822C28.0277 9.56615 27.2324 15.0632 28.7651 13.5765L24.777 8.82469C25.9978 11.5063 26.5422 13.0812 25.2861 11.7097C20.6758 9.87121 23.1083 7.69333 22.1466 5.76999L20.9587 10.0126L17.3948 5.76999C17.7777 7.05057 19.5416 9.29788 17.904 9.16411C13.8876 7.66504 15.1321 5.48715 13.7462 3.64867C13.8964 5.20464 12.1489 7.79574 14.5098 8.14587L9.07925 3.47897C9.62697 4.71461 11.7653 6.96243 10.0975 6.78823C7.79956 6.48401 7.13666 4.54475 6.61852 2.46073C6.24041 3.73353 6.07818 5.00632 7.0428 6.27911L1.10309 0C2.46073 2.885 6.10941 5.43058 5.17603 8.65499L0 9.07925C2.73322 9.89374 5.43197 8.60451 5.17604 11.8794L3.13957 13.0673C4.68087 13.2131 6.50578 12.8727 6.53368 15.6129L4.1578 19.5162L6.70339 17.4797C8.01583 21.1676 5.65348 20.3257 4.15779 21.8072L8.06103 21.3829C7.89132 22.7405 5.34573 23.7588 3.98808 24.9467C7.12907 23.6734 8.03107 24.2124 7.89133 28.0014C5.54547 25.5551 5.98871 29.532 4.4972 30.7167C6.87683 28.4021 7.98473 27.6357 8.40044 31.735C8.54186 34.0826 5.62857 32.1875 4.24264 32.4138C6.00678 32.9394 8.50699 35.3107 9.1641 37.8444C7.50776 41.5091 6.59495 36.1121 5.34574 34.2805C5.4687 39.3569 8.15072 40.5948 10.4369 42.4264C9.28704 40.5498 8.75667 41.2782 5.34573 41.6627C13.3785 43.5578 8.42872 43.6709 10.946 45.3114C9.24897 44.576 9.30421 44.7592 7.12764 43.7841C8.91982 45.3373 11.2802 46.4572 10.0126 47.6024C6.36397 47.0085 7.29735 46.7539 4.41235 45.6508C7.58018 48.9601 7.94787 47.9419 11.1157 49.7238C5.21896 47.3264 6.70467 48.8746 3.39411 50.0632C14.475 49.5623 7.30398 51.8934 11.9643 51.4208C8.49591 50.4638 7.74298 50.7905 6.19426 53.033C12.7676 49.7139 9.08254 54.5464 12.0491 52.7784C10.5172 55.0113 9.05655 55.1264 3.64867 54.1361C6.94796 55.0663 7.31665 57.5697 12.4734 54.4755C4.40547 58.008 7.71096 58.2549 5.68514 60.9243C9.33725 55.852 10.8193 56.308 13.831 56.3423Z"/><path id="shape01" transform="matrix(2.0708405649 0 0 2.1931737 695.18940226 586.96296208)" fill="#000000" stroke="#000000" stroke-width="1.2" stroke-linecap="square" stroke-linejoin="bevel" d="M62.8825 35.917C63.0056 26.9976 57.6912 7.19926 41.9625 0.293842C35.7651 -2.00859 23.5105 9.62801 16.4425 20.9169L8.57728 38.1793C8.15305 38.9625 -1.65101 43.61 0.24249 59.3169C2.97101 66.2598 5.21874 77.7645 5.16249 77.5569L53.1625 77.5569C56.5205 69.6941 60.1179 74.0412 62.8825 35.917Z"/><path id="shape1111" transform="matrix(2.0708405661 0 0 2.1931736863 407.92772816 596.8164619)" fill="#000000" fill-rule="evenodd" stroke="#000000" stroke-width="1.4087988" stroke-linecap="square" stroke-linejoin="bevel" d="M0 73.0642C8.13406 68.1107 11.268 70.5966 16.92 43.3042C23.2392 25.4753 19.2343 9.68297 15.0941 0C29.2142 1.52482 41.0943 26.7375 50.52 37.0642C78.6047 27.1253 139.803 -7.78332 152.76 3.22417C141.999 11.8525 137.753 15.0815 125.4 44.2642C123.389 54.5648 135.203 71.9322 143.16 73.1842L0.12 72.9442Z"/><path id="shape011" transform="matrix(2.0708405082 0 0 2.1931737216 765.02343099 530.19704625)" fill="#000000" stroke="#000000" stroke-width="2.4" stroke-linecap="square" stroke-linejoin="bevel" d="M20.16 37.92C11.8494 21.2851 6.95995 10.8283 6.95994 10.7999L0 0"/><path id="shape01111" transform="matrix(2.0708405194 0 0 2.1931736367 415.81469135 339.63040597)" fill="#000000" fill-rule="evenodd" stroke="#000000" stroke-opacity="0" stroke-width="1.8" stroke-linecap="square" stroke-linejoin="bevel" d="M16.8314 9.97079L10.9514 18.0108L3.99141 63.8508L2.9114 76.2108C-1.75697 77.142 1.17325 72.1204 0 68.3914C1.47363 71.1506 0.780374 74.8733 2.54558 70.343C2.38332 70.1189 2.87251 67.4044 0.339411 66.3549L3.51141 66.2508C1.07817 66.2798 1.94742 62.475 0.763675 55.918C3.12672 59.421 2.22376 63.6085 3.9914 60.1308C3.48633 56.4932 2.60568 60.0247 2.71529 53.5421C4.565 58.2427 3.26745 58.0071 4.24264 54.4755C2.00794 44.2591 4.21014 51.3166 2.54558 47.9418C4.61187 50.5966 5.49942 47.6925 5.26087 51.4208C5.38251 49.6484 3.70071 47.0742 4.32749 44.8023C4.75747 46.8132 4.96877 50.0883 6.1094 41.3233C7.10924 41.0447 7.57861 36.7706 4.07293 38.6929L6.8714 36.7308C4.5038 36.186 6.06604 31.0375 6.1094 30.9713C7.01561 33.3986 6.9914 38.929 7.80646 29.953C8.06826 29.1358 9.54187 25.6983 6.53367 24.777L8.90954 24.0133C4.58509 19.0684 8.82705 20.2273 8.14587 17.0554C9.19866 17.6786 8.08485 23.357 10.0126 17.7342C10.9253 16.917 10.2463 14.001 8.14587 15.1887C8.07658 15.1501 10.2357 11.6625 11.1914 15.6108C12.6326 13.1308 12.1521 13.2563 11.2854 10.7763L15.0189 11.8794C12.684 8.13279 15.6907 6.53875 17.3948 0C15.2948 11.7649 18.3437 9.58969 16.8314 9.97079Z"/><path id="shape011111" transform="matrix(2.0708404726 0 0 2.1931735871 321.10349532 603.88762519)" fill="none" stroke="#000000" stroke-width="1.2" stroke-linecap="square" stroke-linejoin="bevel" d="M16.3766 0L10.5218 12.3888L0 6.78844L2.80014 16.7162L11.0309 23.759L21.9769 6.44903L16.122 0Z"/><path id="shape11111" transform="matrix(2.0708404726 0 0 2.1931735871 326.72650635 603.48201769)" fill="#000000" fill-rule="evenodd" stroke="#000000" stroke-width="1.2408012" stroke-linecap="square" stroke-linejoin="bevel" d="M19.3464 6.29459L8.14587 24.1137L0 16.8163L7.97616 45.4966C12.2698 53.4309 13.2076 64.7211 22.0517 68.1049L34.5317 64.7449C50.5015 60.4647 59.5079 -3.88302 43.784 0.184934C43.7124 0.083643 40.0063 6.38652 35.2988 9.34929C34.0334 12.3445 30.9566 12.6223 26.9832 11.5555Z"/><path id="shape0111111" transform="matrix(2.0708404257 0 0 2.1931735375 821.68155844 694.94816674)" fill="none" stroke="#000000" stroke-width="2.4" stroke-linecap="square" stroke-linejoin="bevel" d="M0 0L1.91995 27.36"/><path id="shape22" transform="matrix(2.0647215486 -0.16847074978 0.15907361329 2.1866931929 756.55767013 411.80106503)" fill="#000000" fill-rule="evenodd" stroke="#000000" stroke-width="0.3432001536" stroke-linecap="square" stroke-linejoin="bevel" d="M1.4074 55.7231L4.44138 33.0627L0 0.104114C1.90099 -0.104292 3.25698 0.000178465 4.06794 0.417523C1.56487 0.690192 -1.69676 1.23578 4.44252 4.01773C3.85179 4.56204 2.26542 2.81263 3.51487 7.59625L6.23906 8.1672C3.997 10.7967 4.69421 10.117 4.94083 12.5203C6.42028 13.7908 6.84889 12.3472 8.60394 11.8397C6.18162 14.1819 5.48678 14.0687 5.42314 15.5788C6.84182 17.1576 6.86509 17.9004 8.84286 14.9874C7.41801 17.7543 7.89647 18.2856 6.74406 19.0277C7.74723 19.8165 8.431 21.1376 10.0533 20.8944C8.3272 21.1798 6.57038 21.4413 6.82892 23.2703C7.56691 25.0306 8.7222 24.8436 10.1382 23.44C9.52909 25.6216 8.37436 25.8934 7.33803 26.5796C12.293 26.8348 9.84726 29.1863 10.9473 30.0502C9.26574 29.842 10.5306 26.278 5.96218 30.6873L7.0474 32.5631C7.46474 34.1635 8.91863 36.6858 12.5037 33.082C10.5922 35.5507 7.32337 37.6343 5.4531 38.677L13.5615 38.0981C10.8409 40.037 6.86535 39.9404 6.5674 42.2831C8.74463 40.404 8.70201 43.0663 11.2877 42.6168C6.01851 43.6439 7.51389 44.4366 5.1274 45.1631C7.38318 44.6356 9.5522 43.9538 13.7868 46.9442C9.95325 45.5924 6.84218 45.1601 5.4874 46.9631C10.7049 48.1448 12.0622 49.3264 14.296 50.5081C11.4223 49.8405 8.04049 47.3947 5.98039 49.5747C8.11791 49.9302 9.39848 51.4283 10.9019 52.6294C4.37524 49.6434 5.2094 51.6628 3.9274 52.2431C5.89669 52.0084 8.12235 53.0556 10.3079 53.9022C5.36031 53.3207 2.98298 54.2814 1.4074 55.7231Z"/><path id="shape32" transform="matrix(0.35302506625 2.1610699825 -2.0405275763 0.37387971749 757.53100224 368.53847671)" fill="#000000" fill-rule="evenodd" stroke="#000000" stroke-width="0.3432001536" stroke-linecap="square" stroke-linejoin="bevel" d="M0 13.6667L7.83006 8.06642C15.7896 5.62717 18.8275 4.84307 16.9437 5.71413C19.3521 2.63592 16.131 3.09243 14.8878 0C15.9924 4.98682 13.922 3.08903 12.3118 5.03456C11.4948 4.57726 11.6511 2.85207 12.1182 1.22581C11.0192 3.68231 9.91492 5.74904 9.04885 6.29679C8.93351 5.24459 7.73077 5.85979 8.53699 2.9201C7.36604 6.04124 7.77841 6.50433 5.97195 8.75772C6.34717 7.42694 6.43847 7.06802 6.09276 5.78536C6.03294 8.09308 5.52029 8.87979 3.85288 9.93318C5.10878 7.28618 3.9333 6.81392 3.9075 5.04195C3.99531 7.13928 2.18961 10.0145 0 13.6667Z"/><path id="shape42" transform="matrix(1.8348625929 1.0167435794 -0.96003059992 1.9432555175 556.85292379 296.35250474)" fill="#000000" fill-rule="evenodd" stroke="#000000" stroke-width="0.3432001536" stroke-linecap="square" stroke-linejoin="bevel" d="M34.9916 3.48382C35.4929 1.61244 31.7939 2.48097 32.4984 0C31.3808 2.75634 33.2447 2.96553 31.4833 4.64904C31.3907 3.01224 30.6835 2.14625 30.3898 0.91174C30.5162 3.43502 30.386 4.39966 28.9483 5.80568C29.7472 3.91903 27.9499 2.88312 27.8485 0.996461C27.9452 6.53512 25.3644 6.29312 22.4683 8.56568C21.8117 8.06852 20.8013 7.7837 23.4194 5.32174C19.744 5.63153 20.1765 8.15325 19.1767 9.90379C19.2601 7.27481 16.3444 7.64491 14.3401 7.10364C16.1495 7.57648 17.5982 8.3771 16.9483 11.0857C16.2886 9.71499 15.2794 9.21803 14.1704 8.97041C14.7435 9.9555 15.8326 10.9406 15.1483 11.9257L7.89131 14.7404C7.64224 14.3817 8.69424 13.2795 10.0126 12.0251C7.33797 13.2791 3.11384 13.7128 3.98826 16.8457C3.38905 15.0506 1.70561 14.123 0 13.213C1.40723 14.9419 2.26329 16.9463 1.86676 19.577Z"/><path id="shape52" transform="matrix(-1.6101345853 -1.379175653 -1.3022465606 1.7052518967 588.74333309 375.6980764)" fill="#000000" fill-rule="evenodd" stroke="#000000" stroke-width="0.3432001536" stroke-linecap="square" stroke-linejoin="bevel" d="M25.562 0L0 45.5358C1.1035 45.5036 8.59698 36.8589 8.98552 36.9066C8.95994 37.0648 27.4108 28.9763 21.9201 21.8962C21.0093 12.9425 26.8938 10.9053 27.8332 13.412L24.5523 6.59149C28.3725 1.29563 30.935 10.3402 32.6972 11.4053C32.8768 1.72189 27.4971 1.22473 25.562 0Z"/><path id="shape05" transform="matrix(0.10890674687 -2.1901384499 2.0679746189 0.115340313 409.66062002 560.30191969)" fill="#000000" fill-rule="evenodd" stroke="#000000" stroke-width="0.3432001536" stroke-linecap="square" stroke-linejoin="bevel" d="M0 16.2256L10.2724 8.84191C20.7948 5.7811 22.7136 5.53571 22.6325 5.6006C27.5099 3.09083 22.2387 3.88043 20.5952 0C22.0555 6.25753 18.3258 2.59621 16.1972 5.03749C15.1171 4.46366 14.9101 5.07136 15.9249 1.44762C13.8761 6.9047 13.0285 5.93403 11.8836 6.62135C11.7311 5.30104 10.0783 6.77006 11.1442 3.0813C8.22124 7.13024 10.2041 6.88178 7.81599 9.70936C8.31202 8.03948 8.43272 7.5891 7.9757 5.9796C7.89662 8.87536 7.22767 8.75106 5.02338 10.0729C6.68366 6.75138 4.783 8.22517 4.74889 6.00167C4.86497 8.63343 2.89464 11.6427 0 16.2256Z"/><g id="group1" transform="matrix(0.93289765324 0 0 0.88598391169 614.51206993 22.646800498)" fill="none">
  <g id="group2" transform="matrix(1.1151041601 -0.033845782061 0.033834681205 1.1147384244 4.5474735089e-13 6.2214411423)" fill="none">
   <path id="shape01111111" transform="matrix(-2.3390029757 0.75206676961 0.7218922735 3.1147197065 164.75936961 -1.6342482922e-13)" fill="#000000" fill-rule="evenodd" stroke="#000000" stroke-width="1.2408012" stroke-linecap="square" stroke-linejoin="bevel" d="M0 10.8L2.76 0L23.28 0.48L70.44 16.68L48.48 16.32L37.8 26.4Z"/>
   <path id="shape111111" transform="matrix(-2.3390029757 0.75206676961 0.7218922735 3.1147197065 170.46967963 46.759948416)" fill="#000000" fill-rule="evenodd" stroke="#000000" stroke-width="1.2408012" stroke-linecap="square" stroke-linejoin="bevel" d="M0 0L0.111434 3.12L7.35461 6.36L7.24318 2.88Z"/>
   <path id="shape2111" transform="matrix(-2.3390029757 0.75206676961 0.7218922735 3.1147197065 151.30707897 68.182912198)" fill="#000000" fill-rule="evenodd" stroke="#000000" stroke-width="1.2408012" stroke-linecap="square" stroke-linejoin="bevel" d="M0 0L0 3.84L25.68 14.64L25.68 10.68Z"/>
   <path id="shape311" transform="matrix(-2.3390029757 0.75206676961 0.7218922735 3.1147197065 86.57733985 88.192423187)" fill="#000000" fill-rule="evenodd" stroke="#000000" stroke-width="1.2408012" stroke-linecap="square" stroke-linejoin="bevel" d="M0 10.68L0 16.68L17.16 16.44L23.4 7.44L23.52 0.24L11.16 0L8.04 3.12L8.28 3.96L19.32 3.96L15.6 12.84L4.56 12.48L8.16 3Z"/>
   <path id="shape411" transform="matrix(-2.3390029757 0.75206676961 0.7218922735 3.1147197065 30.981827536 107.27307758)" fill="#000000" fill-rule="evenodd" stroke="#000000" stroke-width="1.2408012" stroke-linecap="square" stroke-linejoin="bevel" d="M10.92 0.48L3.12 10.56L0 10.68L2.4 7.08L2.4 0Z"/>
  </g>
  <path id="shape511" transform="matrix(-2.3390029757 0.75206676961 0.7218922735 3.1147197065 169.98028196 103.92568799)" fill="#000000" fill-rule="evenodd" stroke="#000000" stroke-width="1.2408012" stroke-linecap="square" stroke-linejoin="bevel" d="M3.27953 1.98206L10.3735 10.6714L5.2239 11.6066L0 0Z"/>
  <path id="shape611" transform="matrix(-2.3390029757 0.75206676961 0.7218922735 3.1147197065 164.80700362 134.67793882)" fill="#000000" fill-rule="evenodd" stroke="#000000" stroke-width="1.2408012" stroke-linecap="square" stroke-linejoin="bevel" d="M12.96 5.71164L0 5.47164L0.0558463 4.75864L6.60552 3.63434L8.25425 0Z"/>
  <path id="shape711" transform="matrix(-2.3390029757 0.75206676961 0.7218922735 3.1147197065 211.24509582 138.2457702)" fill="#000000" fill-rule="evenodd" stroke="#000000" stroke-width="1.2408012" stroke-linecap="square" stroke-linejoin="bevel" d="M10.32 0.36L11.34 3.36L1.44 6.18L0 0Z"/>
  <path id="shape811" transform="matrix(-2.3390029757 0.75206676961 0.7218922735 3.1147197065 233.79128659 124.91585192)" fill="#000000" fill-rule="evenodd" stroke="#000000" stroke-width="1.2408012" stroke-linecap="square" stroke-linejoin="bevel" d="M28.92 3.85682L28.8 5.77682L9.95996 10.6968L7.4477 1.25353L0 0L6.55585 20.3202L8.36226 20.0382L9.89996 13.5168L35.52 5.17682L35.4 3.61682Z"/>
  <path id="shape911" transform="matrix(-2.3390029757 0.75206676961 0.7218922735 3.1147197065 210.96956008 146.16595684)" fill="#000000" fill-rule="evenodd" stroke="#000000" stroke-width="1.2408012" stroke-linecap="square" stroke-linejoin="bevel" d="M26.7 0.18L26.82 2.7L1.08 11.22L0 16.44L10.62 16.02L11.28 10.5L30.84 2.7L30.6 0L26.58 0.06Z"/>
 </g><g id="group11" transform="matrix(3.3141625208 0 0 4.0111201368 12.065694948 461.24350588)" fill="none">
  <path id="shape012" transform="matrix(0.57656036441 -0.50789420443 0.66419095923 0.6785220456 -8.881784197e-14 35.77606776)" fill="#000000" fill-rule="evenodd" stroke="#000000" stroke-width="1.2408012" stroke-linecap="square" stroke-linejoin="bevel" d="M0 10.8L2.76 0L23.28 0.48L70.44 16.68L48.48 16.32L37.8 26.4Z"/>
  <path id="shape1111111" transform="matrix(0.57656036441 -0.50789420443 0.66419095923 0.6785220456 10.820236364 44.59210408)" fill="#000000" fill-rule="evenodd" stroke="#000000" stroke-width="1.2408012" stroke-linecap="square" stroke-linejoin="bevel" d="M0 0L0.111434 3.12L7.35461 6.36L7.24318 2.88Z"/>
  <path id="shape21111" transform="matrix(0.57656036441 -0.50789420443 0.66419095923 0.6785220456 19.383926998 42.810380159)" fill="#000000" fill-rule="evenodd" stroke="#000000" stroke-width="1.2408012" stroke-linecap="square" stroke-linejoin="bevel" d="M0 0L0 3.84L25.68 14.64L25.68 10.68Z"/>
  <path id="shape3111" transform="matrix(0.57656036441 -0.50789420443 0.66419095923 0.6785220456 35.137587934 28.629654199)" fill="#000000" fill-rule="evenodd" stroke="#000000" stroke-width="1.2408012" stroke-linecap="square" stroke-linejoin="bevel" d="M0 10.68L0 16.68L17.16 16.44L23.4 7.44L23.52 0.24L11.16 0L8.04 3.12L8.28 3.96L19.32 3.96L15.6 12.84L4.56 12.48L8.16 3Z"/>
  <path id="shape4111" transform="matrix(0.57656036441 -0.50789420443 0.66419095923 0.6785220456 49.14495878 16.745408)" fill="#000000" fill-rule="evenodd" stroke="#000000" stroke-width="1.2408012" stroke-linecap="square" stroke-linejoin="bevel" d="M10.92 0.48L3.12 10.56L0 10.68L2.4 7.08L2.4 0Z"/>
  <path id="shape5111" transform="matrix(0.57656036441 -0.50789420443 0.66419095923 0.6785220456 30.237208973 45.145300672)" fill="#000000" fill-rule="evenodd" stroke="#000000" stroke-width="1.2408012" stroke-linecap="square" stroke-linejoin="bevel" d="M0.0848528 0L6.44881 2.54558L4.20021 3.90323L0 0Z"/>
  <path id="shape6111" transform="matrix(0.57656036441 -0.50789420443 0.66419095923 0.6785220456 33.539367978 46.578862774)" fill="#000000" fill-rule="evenodd" stroke="#000000" stroke-width="1.2408012" stroke-linecap="square" stroke-linejoin="bevel" d="M12.96 3.41373L0 3.17373L0.0558463 2.46073L4.04393 1.99404L6.67437 0Z"/>
  <path id="shape7111" transform="matrix(0.57656036441 -0.50789420443 0.66419095923 0.6785220456 25.22101082 57.987326632)" fill="#000000" fill-rule="evenodd" stroke="#000000" stroke-width="1.2408012" stroke-linecap="square" stroke-linejoin="bevel" d="M10.32 0.36L11.34 3.36L1.44 6.18L0 0Z"/>
  <path id="shape8111" transform="matrix(0.57656036441 -0.50789420443 0.66419095923 0.6785220456 11.191137793 70.118847046)" fill="#000000" fill-rule="evenodd" stroke="#000000" stroke-width="1.2408012" stroke-linecap="square" stroke-linejoin="bevel" d="M42.8464 2.22L42.7264 4.14L23.8864 9.06L21.6664 0L0 4.99121L12.6442 14.4558L19.5986 19.6613L23.8264 11.88L49.4464 3.54L49.3264 1.98Z"/>
  <path id="shape9111" transform="matrix(0.57656036441 -0.50789420443 0.66419095923 0.6785220456 25.803007973 60.431493727)" fill="#000000" fill-rule="evenodd" stroke="#000000" stroke-width="1.2408012" stroke-linecap="square" stroke-linejoin="bevel" d="M29.2262 0.18L29.3462 2.7L3.60623 11.22L0 19.0182L6.79627 24.1054L13.8062 10.5L33.3662 2.7L33.1262 0L29.1062 0.06Z"/>
 </g><g id="group3" transform="matrix(0.93289765324 0 0 0.88598391169 8.1331904634 33.214458719)" fill="none">
  <path id="shape013" transform="matrix(1.7045935073 0.065411351545 0.038281670593 2.3500029015 8.4643272619 1.1368683772e-13)" fill="#000000" fill-rule="evenodd" stroke="#000000" stroke-width="1.2408012" stroke-linecap="square" stroke-linejoin="bevel" d="M0 10.8L2.76 0L23.28 0.48L70.44 16.68L48.48 16.32L37.8 26.4Z"/>
  <path id="shape112" transform="matrix(1.7045935073 0.065411351545 0.038281670593 2.3500029015 12.497548046 34.255482805)" fill="#000000" fill-rule="evenodd" stroke="#000000" stroke-width="1.2408012" stroke-linecap="square" stroke-linejoin="bevel" d="M0 0L0.111434 3.12L7.35461 6.36L7.24318 2.88Z"/>
  <path id="shape212" transform="matrix(1.7045935073 0.065411351545 0.038281670593 2.3500029015 29.036210864 45.599445499)" fill="#000000" fill-rule="evenodd" stroke="#000000" stroke-width="1.2408012" stroke-linecap="square" stroke-linejoin="bevel" d="M0 0L0 3.84L25.68 14.64L25.68 10.68Z"/>
  <path id="shape312" transform="matrix(1.7045935073 0.065411351545 0.038281670593 2.3500029015 76.073806143 46.840798156)" fill="#000000" fill-rule="evenodd" stroke="#000000" stroke-width="1.2408012" stroke-linecap="square" stroke-linejoin="bevel" d="M0 10.68L0 16.68L17.16 16.44L23.4 7.44L23.52 0.24L11.16 0L8.04 3.12L8.28 3.96L19.32 3.96L15.6 12.84L4.56 12.48L8.16 3Z"/>
  <path id="shape412" transform="matrix(1.7045935073 0.065411351545 0.038281670593 2.3500029015 116.7932823 49.248822376)" fill="#000000" fill-rule="evenodd" stroke="#000000" stroke-width="1.2408012" stroke-linecap="square" stroke-linejoin="bevel" d="M10.92 0.48L3.12 10.56L0 10.68L2.4 7.08L2.4 0Z"/>
  <path id="shape512" transform="matrix(1.7045935073 0.065411351545 0.038281670593 2.3500029015 42.998192077 68.244295406)" fill="#000000" fill-rule="evenodd" stroke="#000000" stroke-width="1.2408012" stroke-linecap="square" stroke-linejoin="bevel" d="M0.0848528 0L6.44881 2.54558L4.20021 3.90323L0 0Z"/>
  <path id="shape612" transform="matrix(1.7045935073 0.065411351545 0.038281670593 2.3500029015 46.144303833 76.435851577)" fill="#000000" fill-rule="evenodd" stroke="#000000" stroke-width="1.2408012" stroke-linecap="square" stroke-linejoin="bevel" d="M12.96 3.41373L0 3.17373L0.0558463 2.46073L4.04393 1.99404L6.67437 0Z"/>
  <path id="shape712" transform="matrix(1.7045935073 0.065411351545 0.038281670593 2.3500029015 14.614852758 79.51049109)" fill="#000000" fill-rule="evenodd" stroke="#000000" stroke-width="1.2408012" stroke-linecap="square" stroke-linejoin="bevel" d="M10.7099 1.76512L11.7299 4.76512L1.82986 7.58512L0 0Z"/>
  <path id="shape812" transform="matrix(1.7045935073 0.065411351545 0.038281670593 2.3500029015 -1.4210854715e-13 70.112208372)" fill="#000000" fill-rule="evenodd" stroke="#000000" stroke-width="1.2408012" stroke-linecap="square" stroke-linejoin="bevel" d="M27.5992 7.20809L27.4792 9.12809L8.63916 14.0481L6.25973 2.96562L0.783632 0L0 20.1325L7.04146 23.3895L8.57916 16.8681L34.1992 8.52809L34.0792 6.96809Z"/>
  <path id="shape912" transform="matrix(1.7045935073 0.065411351545 0.038281670593 2.3500029015 16.854633583 88.391995099)" fill="#000000" fill-rule="evenodd" stroke="#000000" stroke-width="1.2408012" stroke-linecap="square" stroke-linejoin="bevel" d="M26.7 0.18L26.82 2.7L1.08 11.22L0 16.44L9.48353 13.6988L11.28 10.5L30.84 2.7L30.6 0L26.58 0.06Z"/>
 </g><path id="shape0121" transform="matrix(1.9393807017 0.76896522842 -0.72607315374 2.0539478255 622.02557274 545.174331)" fill="#000000" fill-rule="evenodd" stroke="#000000" stroke-width="0.3432001536" stroke-linecap="square" stroke-linejoin="bevel" d="M5.06235 44.6302L20.1061 30.1188C26.6534 26.0468 37.582 17.0426 37.7116 16.6417C37.6417 16.7182 56.2975 8.90801 61.9499 5.39248C62.1834 5.28333 55.7164 5.00471 53.1899 6.67903C54.1908 5.35209 53.7523 2.00095 54.304 0C52.6962 3.01311 50.4886 6.30317 48.4443 8.22516C46.145 8.39067 48.2962 6.41417 48.614 5.17046L44.7846 9.59175L46.0685 3.81281C44.8229 6.36157 44.1726 9.50552 41.9046 11.0317C42.3631 9.62026 41.893 8.39447 41.2318 7.20692C41.1447 11.2456 39.6777 11.4897 38.7846 13.3117C39.482 11.3051 39.6537 9.12873 39.8742 7.03722C36.8415 12.807 35.3499 14.289 33.1831 16.1623C31.7355 15.6926 31.1698 14.4921 33.3405 12.2132C28.9168 13.5114 31.6843 17.1728 30.7585 18.8824C30.6824 17.89 31.2364 16.3381 26.768 15.4837C29.0902 16.3957 28.84 19.5357 28.1358 20.5891L24.9187 19.2564C26.357 21.1854 26.943 23.3568 25.2343 23.4875L20.8444 23.8625C20.4524 23.3089 17.0445 24.3552 20.6275 20.8629C12.7521 23.0989 18.3196 27.1447 18.498 28.7276C18.1598 26.7411 15.1038 27.8195 13.2157 26.7186C16.3737 29.784 16.8767 29.8535 15.815 31.7254C14.6604 30.7517 12.2995 30.5872 9.00278 30.4704C13.8257 31.5447 12.9293 31.8248 11.4032 35.914C9.44066 35.6211 8.06019 35.1333 7.53168 32.8332C7.59216 39.8273 8.53899 36.3772 8.80001 38.157C8.21307 36.2336 4.64297 38.5455 3.39787 37.2802C7.89179 39.3078 6.34807 39.3054 5.34185 41.9887C3.35172 42.2743 1.7107 46.0961 0 39.8207C0.494939 45.1568 0.912068 45.8452 2.30021 46.9328Z"/><path id="shape0112" transform="matrix(2.0701761695 -0.055538336438 0.052440446016 2.1924700893 511.72522929 626.65330677)" fill="#000000" fill-rule="evenodd" stroke="#000000" stroke-width="0.3432001536" stroke-linecap="square" stroke-linejoin="bevel" d="M5.93283 20.6242L33.7882 9.31532C35.1404 7.54901 37.2199 2.75987 38.1463 0C36.0917 4.96799 33.279 6.56662 31.6158 7.75953L30.9248 3.63627C30.6426 7.57274 29.4351 8.86552 28.0448 9.63627C28.86 8.49462 29.4655 6.76607 29.4848 3.39627C28.0815 8.07366 24.6923 10.5957 22.4517 12.1719C20.9784 12.353 20.0402 11.3683 22.9608 9.03233C19.2782 9.68851 19.7129 11.9459 18.6333 13.6144C18.9199 11.6223 16.3354 11.1414 13.6448 10.7163C15.7175 11.5439 17.4217 12.8179 16.0448 14.6163C15.5743 13.2267 13.4696 12.8767 11.7043 12.7848C13.962 14.9078 13.004 15.8879 12.27 16.5848L8.90358 18.7647C5.56399 19.3542 5.27338 17.2645 9.74487 15.5763C5.41213 15.125 -0.295265 20.2264 0.0118905 24.6679Z"/><path id="shape04" transform="matrix(-1.8859710266 -0.90579834524 -0.85527376221 1.997383089 533.90842136 626.66093088)" fill="#000000" fill-rule="evenodd" stroke="#000000" stroke-width="0.3432001536" stroke-linecap="square" stroke-linejoin="bevel" d="M47.1023 6.53311C47.7795 4.12207 44.2381 3.19642 45.1898 0C43.4157 7.91126 42.8369 3.32713 40.4574 5.49613C40.3323 3.38731 38.9291 2.72578 38.5324 1.13527C38.7031 4.3862 37.6037 4.67203 35.6615 6.48351C36.7407 4.05279 35.2363 3.67515 35.0993 1.24442C35.2299 8.3803 30.639 7.27769 26.7266 10.2056C25.8395 9.56508 25.5791 9.98894 29.1159 6.81701C24.1507 7.21613 24.735 10.4651 23.3844 12.7204C23.497 9.3333 19.5582 9.81012 16.8505 9.11276C19.2949 9.72196 21.2519 10.7535 20.374 14.2432C19.4828 12.4772 18.1194 11.8369 16.6212 11.5179C17.3955 12.787 17.7541 14.1987 16.8297 15.4679L10.3474 18.7211C10.0109 18.2589 10.7471 15.5286 12.5281 13.9124C8.91486 15.5281 5.35503 17.5681 6.5363 21.6045C5.72682 19.2917 3.08888 21.2227 0.784737 20.0503C2.68579 22.2778 1.98691 23.2425 0 25.1831Z"/><path id="shape11" transform="matrix(2.0708406976 0 0 2.1931737719 422.83780634 440.71540772)" fill="#000000" fill-rule="evenodd" stroke="#000000" stroke-width="1.2" stroke-linecap="square" stroke-linejoin="bevel" d="M70.9199 40.32L59.64 48.2401L56.7599 57.6L56.04 65.0401L40.9867 65.4059L42.8534 56.2418L44.2799 43.44C38.1478 40.0502 33.2546 40.4677 28.7677 50.6414L28.92 60.7201L27 56.4001L19.8 52.8001L11.6275 56.2417L6.59988 50.64C4.08652 46.7278 0.0891008 29.5168 0 29.5201C0.0930688 29.524 0.651615 22.6216 0.600001 22.5601L1.08001 20.8801C1.09907 20.6079 1.51345 10.8262 3 12.9601C3.2 25.9395 7.71987 20.8578 14.0399 19.44L16.1999 9.12L37.0799 4.8L39.5999 23.04L47.5199 0C51.606 5.27526 61.9195 -2.04406 61.3512 16.1912C63.8555 19.4243 64.7868 22.292 67.2911 25.5251L75.0975 6.17865L98.9999 7.56001L108 12.6L108 24.84L164.023 25.1857L159.96 37.2001L149.4 49.2001L135.24 58.0801L120.6 61.9201L115.8 57.1201L95.1226 64.2179L87.4859 63.1996L82.7341 50.8111Z"/>
</svg>
